{
	"asset":{
		"generator":"Khronos glTF Blender I/O v3.6.28",
		"version":"2.0"
	},
	"scene":0,
	"scenes":[
		{
			"name":"Scene",
			"nodes":[
				0
			]
		}
	],
	"nodes":[
		{
			"mesh":0,
			"name":"Potion2_Empty"
		}
	],
	"materials":[
		{
			"doubleSided":true,
			"name":"Glass",
			"pbrMetallicRoughness":{}
		},
		{
			"doubleSided":true,
			"name":"Brown",
			"pbrMetallicRoughness":{
				"baseColorFactor":[
					0.13757768273353577,
					0.07494225353002548,
					0.051091987639665604,
					1
				],
				"metallicFactor":0,
				"roughnessFactor":0.5
			}
		}
	],
	"meshes":[
		{
			"name":"Cube.133",
			"primitives":[
				{
					"attributes":{
						"POSITION":0,
						"NORMAL":1
					},
					"indices":2,
					"material":0
				},
				{
					"attributes":{
						"POSITION":3,
						"NORMAL":4
					},
					"indices":5,
					"material":1
				}
			]
		}
	],
	"accessors":[
		{
			"bufferView":0,
			"componentType":5126,
			"count":738,
			"max":[
				0.43838366866111755,
				1.1241167783737183,
				0.43838366866111755
			],
			"min":[
				-0.43838366866111755,
				-0.003534942865371704,
				-0.43838366866111755
			],
			"type":"VEC3"
		},
		{
			"bufferView":1,
			"componentType":5126,
			"count":738,
			"type":"VEC3"
		},
		{
			"bufferView":2,
			"componentType":5123,
			"count":4416,
			"type":"SCALAR"
		},
		{
			"bufferView":3,
			"componentType":5126,
			"count":58,
			"max":[
				0.12893737852573395,
				1.2184877395629883,
				0.12893737852573395
			],
			"min":[
				-0.12893737852573395,
				1.0180292129516602,
				-0.12893737852573395
			],
			"type":"VEC3"
		},
		{
			"bufferView":4,
			"componentType":5126,
			"count":58,
			"type":"VEC3"
		},
		{
			"bufferView":5,
			"componentType":5123,
			"count":336,
			"type":"SCALAR"
		}
	],
	"bufferViews":[
		{
			"buffer":0,
			"byteLength":8856,
			"byteOffset":0,
			"target":34962
		},
		{
			"buffer":0,
			"byteLength":8856,
			"byteOffset":8856,
			"target":34962
		},
		{
			"buffer":0,
			"byteLength":8832,
			"byteOffset":17712,
			"target":34963
		},
		{
			"buffer":0,
			"byteLength":696,
			"byteOffset":26544,
			"target":34962
		},
		{
			"buffer":0,
			"byteLength":696,
			"byteOffset":27240,
			"target":34962
		},
		{
			"buffer":0,
			"byteLength":672,
			"byteOffset":27936,
			"target":34963
		}
	],
	"buffers":[
		{
			"byteLength":28608,
			"uri":"data:application/octet-stream;base64,"
		}
	]
}
