{
    "asset" : {
        "generator" : "Khronos glTF Blender I/O v1.7.33",
        "version" : "2.0"
    },
    "scene" : 0,
    "scenes" : [
        {
            "name" : "Scene",
            "nodes" : [
                3
            ]
        }
    ],
    "nodes" : [
        {
            "mesh" : 0,
            "name" : "Curve.003",
            "rotation" : [
                0.6903455257415771,
                0.15304593741893768,
                -0.15304593741893768,
                0.6903455257415771
            ],
            "scale" : [
                24.298301696777344,
                24.298301696777344,
                24.298301696777344
            ],
            "translation" : [
                -0.7839970588684082,
                0.05585738271474838,
                -0.0465998649597168
            ]
        },
        {
            "mesh" : 1,
            "name" : "Curve.018",
            "rotation" : [
                0,
                0.4121299982070923,
                0,
                0.9111250638961792
            ],
            "scale" : [
                73.63226318359375,
                73.63226318359375,
                73.63226318359375
            ],
            "translation" : [
                -0.12452715635299683,
                0.1695583462715149,
                0.7077940702438354
            ]
        },
        {
            "mesh" : 2,
            "name" : "Curve.019",
            "rotation" : [
                0.19520433247089386,
                0.7963675260543823,
                -0.060474496334791183,
                0.5692423582077026
            ],
            "scale" : [
                73.75638580322266,
                73.75638580322266,
                73.75638580322266
            ],
            "translation" : [
                1.0396877527236938,
                0.049726665019989014,
                0.4789317548274994
            ]
        },
        {
            "children" : [
                0,
                1,
                2
            ],
            "mesh" : 3,
            "name" : "Cylinder.004",
            "scale" : [
                1.3639041185379028,
                1.3639041185379028,
                1.3639041185379028
            ],
            "translation" : [
                0.6072063446044922,
                0.06543223559856415,
                -0.7533373832702637
            ]
        }
    ],
    "animations" : [
        {
            "channels" : [
                {
                    "sampler" : 0,
                    "target" : {
                        "node" : 1,
                        "path" : "translation"
                    }
                },
                {
                    "sampler" : 1,
                    "target" : {
                        "node" : 1,
                        "path" : "rotation"
                    }
                },
                {
                    "sampler" : 2,
                    "target" : {
                        "node" : 1,
                        "path" : "scale"
                    }
                }
            ],
            "name" : "cartAnimation_Curve.018",
            "samplers" : [
                {
                    "input" : 16,
                    "interpolation" : "LINEAR",
                    "output" : 17
                },
                {
                    "input" : 16,
                    "interpolation" : "LINEAR",
                    "output" : 18
                },
                {
                    "input" : 19,
                    "interpolation" : "LINEAR",
                    "output" : 20
                }
            ]
        },
        {
            "channels" : [
                {
                    "sampler" : 0,
                    "target" : {
                        "node" : 2,
                        "path" : "translation"
                    }
                },
                {
                    "sampler" : 1,
                    "target" : {
                        "node" : 2,
                        "path" : "rotation"
                    }
                },
                {
                    "sampler" : 2,
                    "target" : {
                        "node" : 2,
                        "path" : "scale"
                    }
                }
            ],
            "name" : "dashAnimation_Curve.019",
            "samplers" : [
                {
                    "input" : 16,
                    "interpolation" : "LINEAR",
                    "output" : 21
                },
                {
                    "input" : 16,
                    "interpolation" : "LINEAR",
                    "output" : 22
                },
                {
                    "input" : 19,
                    "interpolation" : "LINEAR",
                    "output" : 23
                }
            ]
        }
    ],
    "materials" : [
        {
            "name" : "Shopping.io",
            "pbrMetallicRoughness" : {
                "baseColorFactor" : [
                    0.10090931504964828,
                    0.007431628182530403,
                    0.07385081797838211,
                    1
                ],
                "metallicFactor" : 0,
                "roughnessFactor" : 0.699999988079071
            }
        },
        {
            "name" : "Material.022",
            "pbrMetallicRoughness" : {
                "baseColorFactor" : [
                    0.5271154046058655,
                    0.13286827504634857,
                    0.14702731370925903,
                    1
                ],
                "metallicFactor" : 0,
                "roughnessFactor" : 0.5
            }
        },
        {
            "name" : "Material.021",
            "pbrMetallicRoughness" : {
                "baseColorFactor" : [
                    0.7758227586746216,
                    0.6583748459815979,
                    0.24228119850158691,
                    1
                ],
                "metallicFactor" : 0,
                "roughnessFactor" : 0.5
            }
        },
        {
            "name" : "Base_01.004",
            "pbrMetallicRoughness" : {
                "baseColorFactor" : [
                    0.18025057017803192,
                    0.0874558687210083,
                    0.14073456823825836,
                    1
                ],
                "metallicFactor" : 0,
                "roughnessFactor" : 0.699999988079071
            }
        }
    ],
    "meshes" : [
        {
            "name" : "Curve.005",
            "primitives" : [
                {
                    "attributes" : {
                        "POSITION" : 0,
                        "NORMAL" : 1,
                        "TEXCOORD_0" : 2
                    },
                    "indices" : 3,
                    "material" : 0
                }
            ]
        },
        {
            "name" : "Curve.093",
            "primitives" : [
                {
                    "attributes" : {
                        "POSITION" : 4,
                        "NORMAL" : 5,
                        "TEXCOORD_0" : 6
                    },
                    "indices" : 7,
                    "material" : 1
                }
            ]
        },
        {
            "name" : "Curve.094",
            "primitives" : [
                {
                    "attributes" : {
                        "POSITION" : 8,
                        "NORMAL" : 9,
                        "TEXCOORD_0" : 10
                    },
                    "indices" : 11,
                    "material" : 2
                }
            ]
        },
        {
            "name" : "Cylinder.005",
            "primitives" : [
                {
                    "attributes" : {
                        "POSITION" : 12,
                        "NORMAL" : 13,
                        "TEXCOORD_0" : 14
                    },
                    "indices" : 15,
                    "material" : 3
                }
            ]
        }
    ],
    "accessors" : [
        {
            "bufferView" : 0,
            "componentType" : 5126,
            "count" : 17041,
            "max" : [
                0.054096050560474396,
                0,
                -0.001984125003218651
            ],
            "min" : [
                2.2882240955368616e-06,
                -0.003000000026077032,
                -0.010597004555165768
            ],
            "type" : "VEC3"
        },
        {
            "bufferView" : 1,
            "componentType" : 5126,
            "count" : 17041,
            "type" : "VEC3"
        },
        {
            "bufferView" : 2,
            "componentType" : 5126,
            "count" : 17041,
            "type" : "VEC2"
        },
        {
            "bufferView" : 3,
            "componentType" : 5123,
            "count" : 21795,
            "type" : "SCALAR"
        },
        {
            "bufferView" : 4,
            "componentType" : 5126,
            "count" : 3756,
            "max" : [
                0.007902421988546848,
                0,
                -0.0008465051651000977
            ],
            "min" : [
                0.0002782084047794342,
                -0.0010000000474974513,
                -0.007900714874267578
            ],
            "type" : "VEC3"
        },
        {
            "bufferView" : 5,
            "componentType" : 5126,
            "count" : 3756,
            "type" : "VEC3"
        },
        {
            "bufferView" : 6,
            "componentType" : 5126,
            "count" : 3756,
            "type" : "VEC2"
        },
        {
            "bufferView" : 7,
            "componentType" : 5123,
            "count" : 4896,
            "type" : "SCALAR"
        },
        {
            "bufferView" : 8,
            "componentType" : 5126,
            "count" : 3891,
            "max" : [
                0.0076201558113098145,
                0,
                -0.0008465051651000977
            ],
            "min" : [
                0.0008466839790344238,
                -0.0010000000474974513,
                -0.007618546485900879
            ],
            "type" : "VEC3"
        },
        {
            "bufferView" : 9,
            "componentType" : 5126,
            "count" : 3891,
            "type" : "VEC3"
        },
        {
            "bufferView" : 10,
            "componentType" : 5126,
            "count" : 3891,
            "type" : "VEC2"
        },
        {
            "bufferView" : 11,
            "componentType" : 5123,
            "count" : 4824,
            "type" : "SCALAR"
        },
        {
            "bufferView" : 12,
            "componentType" : 5126,
            "count" : 9765,
            "max" : [
                0.9967329502105713,
                0.11267028003931046,
                0.9967329502105713
            ],
            "min" : [
                -0.9967329502105713,
                -0.05000002309679985,
                -0.9967329502105713
            ],
            "type" : "VEC3"
        },
        {
            "bufferView" : 13,
            "componentType" : 5126,
            "count" : 9765,
            "type" : "VEC3"
        },
        {
            "bufferView" : 14,
            "componentType" : 5126,
            "count" : 9765,
            "type" : "VEC2"
        },
        {
            "bufferView" : 15,
            "componentType" : 5123,
            "count" : 17280,
            "type" : "SCALAR"
        },
        {
            "bufferView" : 16,
            "componentType" : 5126,
            "count" : 39,
            "max" : [
                1.616666669646899
            ],
            "min" : [
                0.033333336313565574
            ],
            "type" : "SCALAR"
        },
        {
            "bufferView" : 17,
            "componentType" : 5126,
            "count" : 39,
            "type" : "VEC3"
        },
        {
            "bufferView" : 18,
            "componentType" : 5126,
            "count" : 39,
            "type" : "VEC4"
        },
        {
            "bufferView" : 19,
            "componentType" : 5126,
            "count" : 2,
            "max" : [
                1.616666669646899
            ],
            "min" : [
                0.033333336313565574
            ],
            "type" : "SCALAR"
        },
        {
            "bufferView" : 20,
            "componentType" : 5126,
            "count" : 2,
            "type" : "VEC3"
        },
        {
            "bufferView" : 21,
            "componentType" : 5126,
            "count" : 39,
            "type" : "VEC3"
        },
        {
            "bufferView" : 22,
            "componentType" : 5126,
            "count" : 39,
            "type" : "VEC4"
        },
        {
            "bufferView" : 23,
            "componentType" : 5126,
            "count" : 2,
            "type" : "VEC3"
        }
    ],
    "bufferViews" : [
        {
            "buffer" : 0,
            "byteLength" : 204492,
            "byteOffset" : 0
        },
        {
            "buffer" : 0,
            "byteLength" : 204492,
            "byteOffset" : 204492
        },
        {
            "buffer" : 0,
            "byteLength" : 136328,
            "byteOffset" : 408984
        },
        {
            "buffer" : 0,
            "byteLength" : 43590,
            "byteOffset" : 545312
        },
        {
            "buffer" : 0,
            "byteLength" : 45072,
            "byteOffset" : 588904
        },
        {
            "buffer" : 0,
            "byteLength" : 45072,
            "byteOffset" : 633976
        },
        {
            "buffer" : 0,
            "byteLength" : 30048,
            "byteOffset" : 679048
        },
        {
            "buffer" : 0,
            "byteLength" : 9792,
            "byteOffset" : 709096
        },
        {
            "buffer" : 0,
            "byteLength" : 46692,
            "byteOffset" : 718888
        },
        {
            "buffer" : 0,
            "byteLength" : 46692,
            "byteOffset" : 765580
        },
        {
            "buffer" : 0,
            "byteLength" : 31128,
            "byteOffset" : 812272
        },
        {
            "buffer" : 0,
            "byteLength" : 9648,
            "byteOffset" : 843400
        },
        {
            "buffer" : 0,
            "byteLength" : 117180,
            "byteOffset" : 853048
        },
        {
            "buffer" : 0,
            "byteLength" : 117180,
            "byteOffset" : 970228
        },
        {
            "buffer" : 0,
            "byteLength" : 78120,
            "byteOffset" : 1087408
        },
        {
            "buffer" : 0,
            "byteLength" : 34560,
            "byteOffset" : 1165528
        },
        {
            "buffer" : 0,
            "byteLength" : 156,
            "byteOffset" : 1200088
        },
        {
            "buffer" : 0,
            "byteLength" : 468,
            "byteOffset" : 1200244
        },
        {
            "buffer" : 0,
            "byteLength" : 624,
            "byteOffset" : 1200712
        },
        {
            "buffer" : 0,
            "byteLength" : 8,
            "byteOffset" : 1201336
        },
        {
            "buffer" : 0,
            "byteLength" : 24,
            "byteOffset" : 1201344
        },
        {
            "buffer" : 0,
            "byteLength" : 468,
            "byteOffset" : 1201368
        },
        {
            "buffer" : 0,
            "byteLength" : 624,
            "byteOffset" : 1201836
        },
        {
            "buffer" : 0,
            "byteLength" : 24,
            "byteOffset" : 1202460
        }
    ],
    "buffers" : [
        {
            "byteLength" : 1202484,
            "uri" : "data:application/octet-stream;base64,"
        }
    ]
}
