{
    "asset" : {
        "generator" : "Khronos glTF Blender I/O v1.7.33",
        "version" : "2.0"
    },
    "scene" : 0,
    "scenes" : [
        {
            "name" : "Scene",
            "nodes" : [
                3
            ]
        }
    ],
    "nodes" : [
        {
            "mesh" : 0,
            "name" : "Cube",
            "rotation" : [
                0.00023977555974852294,
                0.6429620981216431,
                0.0002855872444342822,
                0.7658979296684265
            ],
            "scale" : [
                0.1468193680047989,
                0.032698553055524826,
                0.3078896701335907
            ],
            "translation" : [
                -0.38712435960769653,
                0.12676861882209778,
                0.2174028754234314
            ]
        },
        {
            "mesh" : 1,
            "name" : "Curve.004",
            "rotation" : [
                0.6903455257415771,
                0.15304593741893768,
                -0.15304593741893768,
                0.6903455257415771
            ],
            "scale" : [
                24.298301696777344,
                24.298301696777344,
                24.298301696777344
            ],
            "translation" : [
                -0.7811160087585449,
                0.0487593412399292,
                -0.0913541316986084
            ]
        },
        {
            "mesh" : 2,
            "name" : "Cylinder.012",
            "rotation" : [
                0.025533046573400497,
                -0.14243854582309723,
                -0.1745869219303131,
                0.9739500284194946
            ],
            "scale" : [
                -0.12225927412509918,
                -0.013874403201043606,
                -0.12225927412509918
            ],
            "translation" : [
                0.800171971321106,
                0.10739246755838394,
                0.28807586431503296
            ]
        },
        {
            "children" : [
                0,
                1,
                2
            ],
            "mesh" : 3,
            "name" : "Cylinder.005",
            "scale" : [
                1.3639041185379028,
                1.3639041185379028,
                1.3639041185379028
            ],
            "translation" : [
                0.6072063446044922,
                0.06543223559856415,
                -0.7533373832702637
            ]
        }
    ],
    "animations" : [
        {
            "channels" : [
                {
                    "sampler" : 0,
                    "target" : {
                        "node" : 0,
                        "path" : "translation"
                    }
                },
                {
                    "sampler" : 1,
                    "target" : {
                        "node" : 0,
                        "path" : "rotation"
                    }
                },
                {
                    "sampler" : 2,
                    "target" : {
                        "node" : 0,
                        "path" : "scale"
                    }
                }
            ],
            "name" : "dollarAnimation_Cube",
            "samplers" : [
                {
                    "input" : 28,
                    "interpolation" : "LINEAR",
                    "output" : 29
                },
                {
                    "input" : 28,
                    "interpolation" : "LINEAR",
                    "output" : 30
                },
                {
                    "input" : 31,
                    "interpolation" : "LINEAR",
                    "output" : 32
                }
            ]
        },
        {
            "channels" : [
                {
                    "sampler" : 0,
                    "target" : {
                        "node" : 2,
                        "path" : "translation"
                    }
                },
                {
                    "sampler" : 1,
                    "target" : {
                        "node" : 2,
                        "path" : "rotation"
                    }
                },
                {
                    "sampler" : 2,
                    "target" : {
                        "node" : 2,
                        "path" : "scale"
                    }
                }
            ],
            "name" : "coinsAnimation_Cylinder.012",
            "samplers" : [
                {
                    "input" : 28,
                    "interpolation" : "LINEAR",
                    "output" : 33
                },
                {
                    "input" : 28,
                    "interpolation" : "LINEAR",
                    "output" : 34
                },
                {
                    "input" : 31,
                    "interpolation" : "LINEAR",
                    "output" : 35
                }
            ]
        }
    ],
    "materials" : [
        {
            "name" : "Material.001",
            "pbrMetallicRoughness" : {
                "baseColorFactor" : [
                    0.3915727138519287,
                    0.539479672908783,
                    0.19461789727210999,
                    1
                ],
                "metallicFactor" : 0,
                "roughnessFactor" : 0.5
            }
        },
        {
            "name" : "Material.013",
            "pbrMetallicRoughness" : {
                "baseColorFactor" : [
                    0.3915727138519287,
                    0.539479672908783,
                    0.19461789727210999,
                    1
                ],
                "metallicFactor" : 0,
                "roughnessFactor" : 0.5
            }
        },
        {
            "name" : "Octo.fi.001",
            "pbrMetallicRoughness" : {
                "baseColorFactor" : [
                    0.006445022765547037,
                    0.09955967962741852,
                    0.10091438889503479,
                    1
                ],
                "metallicFactor" : 0,
                "roughnessFactor" : 0.699999988079071
            }
        },
        {
            "name" : "Material.015",
            "pbrMetallicRoughness" : {
                "baseColorFactor" : [
                    0.38642969727516174,
                    0.14702725410461426,
                    0.013702098280191422,
                    1
                ],
                "metallicFactor" : 0,
                "roughnessFactor" : 0.30000001192092896
            }
        },
        {
            "name" : "Material.016",
            "pbrMetallicRoughness" : {
                "baseColorFactor" : [
                    0.38642969727516174,
                    0.14702725410461426,
                    0.013702098280191422,
                    1
                ],
                "metallicFactor" : 0,
                "roughnessFactor" : 0.30000001192092896
            }
        },
        {
            "name" : "Material.017",
            "pbrMetallicRoughness" : {
                "baseColorFactor" : [
                    0.38642969727516174,
                    0.14702725410461426,
                    0.013702098280191422,
                    1
                ],
                "metallicFactor" : 0,
                "roughnessFactor" : 0.30000001192092896
            }
        },
        {
            "name" : "Base_01.001",
            "pbrMetallicRoughness" : {
                "baseColorFactor" : [
                    0.05263949930667877,
                    0.1777545064687729,
                    0.18025556206703186,
                    1
                ],
                "metallicFactor" : 0,
                "roughnessFactor" : 0.699999988079071
            }
        }
    ],
    "meshes" : [
        {
            "name" : "Cube.002",
            "primitives" : [
                {
                    "attributes" : {
                        "POSITION" : 0,
                        "NORMAL" : 1,
                        "TEXCOORD_0" : 2
                    },
                    "indices" : 3,
                    "material" : 0
                },
                {
                    "attributes" : {
                        "POSITION" : 4,
                        "NORMAL" : 5,
                        "TEXCOORD_0" : 6
                    },
                    "indices" : 7,
                    "material" : 1
                }
            ]
        },
        {
            "name" : "Curve.001",
            "primitives" : [
                {
                    "attributes" : {
                        "POSITION" : 8,
                        "NORMAL" : 9,
                        "TEXCOORD_0" : 10
                    },
                    "indices" : 11,
                    "material" : 2
                }
            ]
        },
        {
            "name" : "Cylinder.003",
            "primitives" : [
                {
                    "attributes" : {
                        "POSITION" : 12,
                        "NORMAL" : 13,
                        "TEXCOORD_0" : 14
                    },
                    "indices" : 15,
                    "material" : 3
                },
                {
                    "attributes" : {
                        "POSITION" : 16,
                        "NORMAL" : 17,
                        "TEXCOORD_0" : 18
                    },
                    "indices" : 19,
                    "material" : 4
                },
                {
                    "attributes" : {
                        "POSITION" : 20,
                        "NORMAL" : 21,
                        "TEXCOORD_0" : 22
                    },
                    "indices" : 23,
                    "material" : 5
                }
            ]
        },
        {
            "name" : "Cylinder.001",
            "primitives" : [
                {
                    "attributes" : {
                        "POSITION" : 24,
                        "NORMAL" : 25,
                        "TEXCOORD_0" : 26
                    },
                    "indices" : 27,
                    "material" : 6
                }
            ]
        }
    ],
    "accessors" : [
        {
            "bufferView" : 0,
            "componentType" : 5126,
            "count" : 24,
            "max" : [
                1,
                1,
                1
            ],
            "min" : [
                -1,
                -1,
                -1
            ],
            "type" : "VEC3"
        },
        {
            "bufferView" : 1,
            "componentType" : 5126,
            "count" : 24,
            "type" : "VEC3"
        },
        {
            "bufferView" : 2,
            "componentType" : 5126,
            "count" : 24,
            "type" : "VEC2"
        },
        {
            "bufferView" : 3,
            "componentType" : 5123,
            "count" : 36,
            "type" : "SCALAR"
        },
        {
            "bufferView" : 4,
            "componentType" : 5126,
            "count" : 36,
            "max" : [
                0.4880332946777344,
                3.3158411979675293,
                -0.193692147731781
            ],
            "min" : [
                -4.127771377563477,
                -0.682610034942627,
                -2.107539653778076
            ],
            "type" : "VEC3"
        },
        {
            "bufferView" : 5,
            "componentType" : 5126,
            "count" : 36,
            "type" : "VEC3"
        },
        {
            "bufferView" : 6,
            "componentType" : 5126,
            "count" : 36,
            "type" : "VEC2"
        },
        {
            "bufferView" : 7,
            "componentType" : 5123,
            "count" : 36,
            "type" : "SCALAR"
        },
        {
            "bufferView" : 8,
            "componentType" : 5126,
            "count" : 17105,
            "max" : [
                0.054096050560474396,
                0,
                -0.0023180977441370487
            ],
            "min" : [
                2.2882240955368616e-06,
                -0.003000000026077032,
                -0.011090279556810856
            ],
            "type" : "VEC3"
        },
        {
            "bufferView" : 9,
            "componentType" : 5126,
            "count" : 17105,
            "type" : "VEC3"
        },
        {
            "bufferView" : 10,
            "componentType" : 5126,
            "count" : 17105,
            "type" : "VEC2"
        },
        {
            "bufferView" : 11,
            "componentType" : 5123,
            "count" : 21795,
            "type" : "SCALAR"
        },
        {
            "bufferView" : 12,
            "componentType" : 5126,
            "count" : 461,
            "max" : [
                1,
                1,
                1
            ],
            "min" : [
                -1,
                -1,
                -1
            ],
            "type" : "VEC3"
        },
        {
            "bufferView" : 13,
            "componentType" : 5126,
            "count" : 461,
            "type" : "VEC3"
        },
        {
            "bufferView" : 14,
            "componentType" : 5126,
            "count" : 461,
            "type" : "VEC2"
        },
        {
            "bufferView" : 15,
            "componentType" : 5123,
            "count" : 756,
            "type" : "SCALAR"
        },
        {
            "bufferView" : 16,
            "componentType" : 5126,
            "count" : 750,
            "max" : [
                -1.650958776473999,
                11.517110824584961,
                2.054621696472168
            ],
            "min" : [
                -3.596970796585083,
                3.5470871925354004,
                0.06346791982650757
            ],
            "type" : "VEC3"
        },
        {
            "bufferView" : 17,
            "componentType" : 5126,
            "count" : 750,
            "type" : "VEC3"
        },
        {
            "bufferView" : 18,
            "componentType" : 5126,
            "count" : 750,
            "type" : "VEC2"
        },
        {
            "bufferView" : 19,
            "componentType" : 5123,
            "count" : 756,
            "type" : "SCALAR"
        },
        {
            "bufferView" : 20,
            "componentType" : 5126,
            "count" : 746,
            "max" : [
                -1.022890329360962,
                9.467061996459961,
                -0.6505326628684998
            ],
            "min" : [
                -2.968902349472046,
                1.4970383644104004,
                -2.64168643951416
            ],
            "type" : "VEC3"
        },
        {
            "bufferView" : 21,
            "componentType" : 5126,
            "count" : 746,
            "type" : "VEC3"
        },
        {
            "bufferView" : 22,
            "componentType" : 5126,
            "count" : 746,
            "type" : "VEC2"
        },
        {
            "bufferView" : 23,
            "componentType" : 5123,
            "count" : 756,
            "type" : "SCALAR"
        },
        {
            "bufferView" : 24,
            "componentType" : 5126,
            "count" : 11296,
            "max" : [
                0.9967329502105713,
                0.11267028003931046,
                0.9967329502105713
            ],
            "min" : [
                -0.9967329502105713,
                -0.05000002309679985,
                -0.9967329502105713
            ],
            "type" : "VEC3"
        },
        {
            "bufferView" : 25,
            "componentType" : 5126,
            "count" : 11296,
            "type" : "VEC3"
        },
        {
            "bufferView" : 26,
            "componentType" : 5126,
            "count" : 11296,
            "type" : "VEC2"
        },
        {
            "bufferView" : 27,
            "componentType" : 5123,
            "count" : 17280,
            "type" : "SCALAR"
        },
        {
            "bufferView" : 28,
            "componentType" : 5126,
            "count" : 39,
            "max" : [
                1.616666669646899
            ],
            "min" : [
                0.033333336313565574
            ],
            "type" : "SCALAR"
        },
        {
            "bufferView" : 29,
            "componentType" : 5126,
            "count" : 39,
            "type" : "VEC3"
        },
        {
            "bufferView" : 30,
            "componentType" : 5126,
            "count" : 39,
            "type" : "VEC4"
        },
        {
            "bufferView" : 31,
            "componentType" : 5126,
            "count" : 2,
            "max" : [
                1.616666669646899
            ],
            "min" : [
                0.033333336313565574
            ],
            "type" : "SCALAR"
        },
        {
            "bufferView" : 32,
            "componentType" : 5126,
            "count" : 2,
            "type" : "VEC3"
        },
        {
            "bufferView" : 33,
            "componentType" : 5126,
            "count" : 39,
            "type" : "VEC3"
        },
        {
            "bufferView" : 34,
            "componentType" : 5126,
            "count" : 39,
            "type" : "VEC4"
        },
        {
            "bufferView" : 35,
            "componentType" : 5126,
            "count" : 2,
            "type" : "VEC3"
        }
    ],
    "bufferViews" : [
        {
            "buffer" : 0,
            "byteLength" : 288,
            "byteOffset" : 0
        },
        {
            "buffer" : 0,
            "byteLength" : 288,
            "byteOffset" : 288
        },
        {
            "buffer" : 0,
            "byteLength" : 192,
            "byteOffset" : 576
        },
        {
            "buffer" : 0,
            "byteLength" : 72,
            "byteOffset" : 768
        },
        {
            "buffer" : 0,
            "byteLength" : 432,
            "byteOffset" : 840
        },
        {
            "buffer" : 0,
            "byteLength" : 432,
            "byteOffset" : 1272
        },
        {
            "buffer" : 0,
            "byteLength" : 288,
            "byteOffset" : 1704
        },
        {
            "buffer" : 0,
            "byteLength" : 72,
            "byteOffset" : 1992
        },
        {
            "buffer" : 0,
            "byteLength" : 205260,
            "byteOffset" : 2064
        },
        {
            "buffer" : 0,
            "byteLength" : 205260,
            "byteOffset" : 207324
        },
        {
            "buffer" : 0,
            "byteLength" : 136840,
            "byteOffset" : 412584
        },
        {
            "buffer" : 0,
            "byteLength" : 43590,
            "byteOffset" : 549424
        },
        {
            "buffer" : 0,
            "byteLength" : 5532,
            "byteOffset" : 593016
        },
        {
            "buffer" : 0,
            "byteLength" : 5532,
            "byteOffset" : 598548
        },
        {
            "buffer" : 0,
            "byteLength" : 3688,
            "byteOffset" : 604080
        },
        {
            "buffer" : 0,
            "byteLength" : 1512,
            "byteOffset" : 607768
        },
        {
            "buffer" : 0,
            "byteLength" : 9000,
            "byteOffset" : 609280
        },
        {
            "buffer" : 0,
            "byteLength" : 9000,
            "byteOffset" : 618280
        },
        {
            "buffer" : 0,
            "byteLength" : 6000,
            "byteOffset" : 627280
        },
        {
            "buffer" : 0,
            "byteLength" : 1512,
            "byteOffset" : 633280
        },
        {
            "buffer" : 0,
            "byteLength" : 8952,
            "byteOffset" : 634792
        },
        {
            "buffer" : 0,
            "byteLength" : 8952,
            "byteOffset" : 643744
        },
        {
            "buffer" : 0,
            "byteLength" : 5968,
            "byteOffset" : 652696
        },
        {
            "buffer" : 0,
            "byteLength" : 1512,
            "byteOffset" : 658664
        },
        {
            "buffer" : 0,
            "byteLength" : 135552,
            "byteOffset" : 660176
        },
        {
            "buffer" : 0,
            "byteLength" : 135552,
            "byteOffset" : 795728
        },
        {
            "buffer" : 0,
            "byteLength" : 90368,
            "byteOffset" : 931280
        },
        {
            "buffer" : 0,
            "byteLength" : 34560,
            "byteOffset" : 1021648
        },
        {
            "buffer" : 0,
            "byteLength" : 156,
            "byteOffset" : 1056208
        },
        {
            "buffer" : 0,
            "byteLength" : 468,
            "byteOffset" : 1056364
        },
        {
            "buffer" : 0,
            "byteLength" : 624,
            "byteOffset" : 1056832
        },
        {
            "buffer" : 0,
            "byteLength" : 8,
            "byteOffset" : 1057456
        },
        {
            "buffer" : 0,
            "byteLength" : 24,
            "byteOffset" : 1057464
        },
        {
            "buffer" : 0,
            "byteLength" : 468,
            "byteOffset" : 1057488
        },
        {
            "buffer" : 0,
            "byteLength" : 624,
            "byteOffset" : 1057956
        },
        {
            "buffer" : 0,
            "byteLength" : 24,
            "byteOffset" : 1058580
        }
    ],
    "buffers" : [
        {
            "byteLength" : 1058604,
            "uri" : "data:application/octet-stream;base64,"
        }
    ]
}
