{
    "asset" : {
        "generator" : "Khronos glTF Blender I/O v1.7.33",
        "version" : "2.0"
    },
    "scene" : 0,
    "scenes" : [
        {
            "name" : "Scene",
            "nodes" : [
                4
            ]
        }
    ],
    "nodes" : [
        {
            "mesh" : 0,
            "name" : "Curve.009",
            "rotation" : [
                0.6903455853462219,
                0.15304593741893768,
                -0.15304595232009888,
                0.6903455257415771
            ],
            "scale" : [
                30.760339736938477,
                30.760339736938477,
                30.760339736938477
            ],
            "translation" : [
                -0.6870255470275879,
                0.003658723086118698,
                -0.15139389038085938
            ]
        },
        {
            "mesh" : 1,
            "name" : "Curve.007",
            "translation" : [
                0,
                -0.0004666857421398163,
                0
            ]
        },
        {
            "children" : [
                1
            ],
            "mesh" : 2,
            "name" : "Curve.008",
            "rotation" : [
                0,
                0.616262674331665,
                0,
                0.7875406742095947
            ],
            "scale" : [
                0.9321861863136292,
                0.9321861267089844,
                0.9321861863136292
            ],
            "translation" : [
                0.0013975659385323524,
                0.000342243118211627,
                0.004125334322452545
            ]
        },
        {
            "children" : [
                2
            ],
            "mesh" : 3,
            "name" : "Curve.012",
            "scale" : [
                62.49689483642578,
                62.49689483642578,
                62.49689483642578
            ],
            "translation" : [
                -0.01722899079322815,
                0.17761555314064026,
                0.48063337802886963
            ]
        },
        {
            "children" : [
                0,
                3
            ],
            "mesh" : 4,
            "name" : "Cylinder.006",
            "scale" : [
                1.3639041185379028,
                1.3639041185379028,
                1.3639041185379028
            ],
            "translation" : [
                0.6072063446044922,
                0.06543223559856415,
                -0.7533373832702637
            ]
        }
    ],
    "animations" : [
        {
            "channels" : [
                {
                    "sampler" : 0,
                    "target" : {
                        "node" : 3,
                        "path" : "translation"
                    }
                },
                {
                    "sampler" : 1,
                    "target" : {
                        "node" : 3,
                        "path" : "rotation"
                    }
                },
                {
                    "sampler" : 2,
                    "target" : {
                        "node" : 3,
                        "path" : "scale"
                    }
                }
            ],
            "name" : "ethAnimation_Curve.012",
            "samplers" : [
                {
                    "input" : 24,
                    "interpolation" : "LINEAR",
                    "output" : 25
                },
                {
                    "input" : 24,
                    "interpolation" : "LINEAR",
                    "output" : 26
                },
                {
                    "input" : 27,
                    "interpolation" : "LINEAR",
                    "output" : 28
                }
            ]
        }
    ],
    "materials" : [
        {
            "name" : "Nyftis",
            "pbrMetallicRoughness" : {
                "baseColorFactor" : [
                    0.006031408440321684,
                    0.006422857753932476,
                    0.10091518610715866,
                    1
                ],
                "metallicFactor" : 0,
                "roughnessFactor" : 0.699999988079071
            }
        },
        {
            "name" : "Material.015",
            "pbrMetallicRoughness" : {
                "baseColorFactor" : [
                    0.8000000715255737,
                    0.3120492696762085,
                    0.03155864030122757,
                    1
                ],
                "metallicFactor" : 0,
                "roughnessFactor" : 0.5
            }
        },
        {
            "name" : "SVGMat.029",
            "pbrMetallicRoughness" : {
                "baseColorFactor" : [
                    1,
                    0.9386857151985168,
                    0.7529422044754028,
                    1
                ],
                "metallicFactor" : 0,
                "roughnessFactor" : 0.4000000059604645
            }
        },
        {
            "name" : "SVGMat.030",
            "pbrMetallicRoughness" : {
                "baseColorFactor" : [
                    1,
                    0.9386857151985168,
                    0.7529422044754028,
                    1
                ],
                "metallicFactor" : 0,
                "roughnessFactor" : 0.4000000059604645
            }
        },
        {
            "name" : "Material.016",
            "pbrMetallicRoughness" : {
                "baseColorFactor" : [
                    0.10702314972877502,
                    0.14702729880809784,
                    0.5271151661872864,
                    1
                ],
                "metallicFactor" : 0,
                "roughnessFactor" : 0.5
            }
        },
        {
            "name" : "Base_01.006",
            "pbrMetallicRoughness" : {
                "baseColorFactor" : [
                    0.07731335610151291,
                    0.03786727413535118,
                    0.18024708330631256,
                    1
                ],
                "metallicFactor" : 0,
                "roughnessFactor" : 0.699999988079071
            }
        }
    ],
    "meshes" : [
        {
            "name" : "Curve.036",
            "primitives" : [
                {
                    "attributes" : {
                        "POSITION" : 0,
                        "NORMAL" : 1,
                        "TEXCOORD_0" : 2
                    },
                    "indices" : 3,
                    "material" : 0
                }
            ]
        },
        {
            "name" : "Curve.079",
            "primitives" : [
                {
                    "attributes" : {
                        "POSITION" : 4,
                        "NORMAL" : 5,
                        "TEXCOORD_0" : 6
                    },
                    "indices" : 7,
                    "material" : 1
                }
            ]
        },
        {
            "name" : "Curve.080",
            "primitives" : [
                {
                    "attributes" : {
                        "POSITION" : 8,
                        "NORMAL" : 9,
                        "TEXCOORD_0" : 10
                    },
                    "indices" : 11,
                    "material" : 2
                },
                {
                    "attributes" : {
                        "POSITION" : 12,
                        "NORMAL" : 13,
                        "TEXCOORD_0" : 14
                    },
                    "indices" : 15,
                    "material" : 3
                }
            ]
        },
        {
            "name" : "Curve.082",
            "primitives" : [
                {
                    "attributes" : {
                        "POSITION" : 16,
                        "NORMAL" : 17,
                        "TEXCOORD_0" : 18
                    },
                    "indices" : 19,
                    "material" : 4
                }
            ]
        },
        {
            "name" : "Cylinder.007",
            "primitives" : [
                {
                    "attributes" : {
                        "POSITION" : 20,
                        "NORMAL" : 21,
                        "TEXCOORD_0" : 22
                    },
                    "indices" : 23,
                    "material" : 5
                }
            ]
        }
    ],
    "accessors" : [
        {
            "bufferView" : 0,
            "componentType" : 5126,
            "count" : 5583,
            "max" : [
                0.037725694477558136,
                1.7200008084472529e-09,
                -0.003043725620955229
            ],
            "min" : [
                -3.725290298461914e-09,
                -0.003000000026077032,
                -0.01313922367990017
            ],
            "type" : "VEC3"
        },
        {
            "bufferView" : 1,
            "componentType" : 5126,
            "count" : 5583,
            "type" : "VEC3"
        },
        {
            "bufferView" : 2,
            "componentType" : 5126,
            "count" : 5583,
            "type" : "VEC2"
        },
        {
            "bufferView" : 3,
            "componentType" : 5123,
            "count" : 7224,
            "type" : "SCALAR"
        },
        {
            "bufferView" : 4,
            "componentType" : 5126,
            "count" : 425,
            "max" : [
                0.012418031692504883,
                0,
                -0.0011286735534667969
            ],
            "min" : [
                0.0011289119720458984,
                -0.001500000013038516,
                -0.012415409088134766
            ],
            "type" : "VEC3"
        },
        {
            "bufferView" : 5,
            "componentType" : 5126,
            "count" : 425,
            "type" : "VEC3"
        },
        {
            "bufferView" : 6,
            "componentType" : 5126,
            "count" : 425,
            "type" : "VEC2"
        },
        {
            "bufferView" : 7,
            "componentType" : 5123,
            "count" : 564,
            "type" : "SCALAR"
        },
        {
            "bufferView" : 8,
            "componentType" : 5126,
            "count" : 1756,
            "max" : [
                0.009313523769378662,
                0,
                -0.003950357437133789
            ],
            "min" : [
                0.004797875881195068,
                -0.0010000000474974513,
                -0.009593725204467773
            ],
            "type" : "VEC3"
        },
        {
            "bufferView" : 9,
            "componentType" : 5126,
            "count" : 1756,
            "type" : "VEC3"
        },
        {
            "bufferView" : 10,
            "componentType" : 5126,
            "count" : 1756,
            "type" : "VEC2"
        },
        {
            "bufferView" : 11,
            "componentType" : 5123,
            "count" : 2376,
            "type" : "SCALAR"
        },
        {
            "bufferView" : 12,
            "componentType" : 5126,
            "count" : 126,
            "max" : [
                0.007902383804321289,
                2.3283064365386963e-10,
                -0.0031038522720336914
            ],
            "min" : [
                0.005644559860229492,
                -0.0009999998146668077,
                -0.010440230369567871
            ],
            "type" : "VEC3"
        },
        {
            "bufferView" : 13,
            "componentType" : 5126,
            "count" : 126,
            "type" : "VEC3"
        },
        {
            "bufferView" : 14,
            "componentType" : 5126,
            "count" : 126,
            "type" : "VEC2"
        },
        {
            "bufferView" : 15,
            "componentType" : 5123,
            "count" : 144,
            "type" : "SCALAR"
        },
        {
            "bufferView" : 16,
            "componentType" : 5126,
            "count" : 68,
            "max" : [
                0.01100689172744751,
                0.0013788628857582808,
                -0.0005643367767333984
            ],
            "min" : [
                0.0031045079231262207,
                -0.0009768364252522588,
                -0.012979745864868164
            ],
            "type" : "VEC3"
        },
        {
            "bufferView" : 17,
            "componentType" : 5126,
            "count" : 68,
            "type" : "VEC3"
        },
        {
            "bufferView" : 18,
            "componentType" : 5126,
            "count" : 68,
            "type" : "VEC2"
        },
        {
            "bufferView" : 19,
            "componentType" : 5123,
            "count" : 84,
            "type" : "SCALAR"
        },
        {
            "bufferView" : 20,
            "componentType" : 5126,
            "count" : 11296,
            "max" : [
                0.9967329502105713,
                0.11267028003931046,
                0.9967329502105713
            ],
            "min" : [
                -0.9967329502105713,
                -0.05000002309679985,
                -0.9967329502105713
            ],
            "type" : "VEC3"
        },
        {
            "bufferView" : 21,
            "componentType" : 5126,
            "count" : 11296,
            "type" : "VEC3"
        },
        {
            "bufferView" : 22,
            "componentType" : 5126,
            "count" : 11296,
            "type" : "VEC2"
        },
        {
            "bufferView" : 23,
            "componentType" : 5123,
            "count" : 17280,
            "type" : "SCALAR"
        },
        {
            "bufferView" : 24,
            "componentType" : 5126,
            "count" : 39,
            "max" : [
                1.616666669646899
            ],
            "min" : [
                0.033333336313565574
            ],
            "type" : "SCALAR"
        },
        {
            "bufferView" : 25,
            "componentType" : 5126,
            "count" : 39,
            "type" : "VEC3"
        },
        {
            "bufferView" : 26,
            "componentType" : 5126,
            "count" : 39,
            "type" : "VEC4"
        },
        {
            "bufferView" : 27,
            "componentType" : 5126,
            "count" : 2,
            "max" : [
                1.616666669646899
            ],
            "min" : [
                0.033333336313565574
            ],
            "type" : "SCALAR"
        },
        {
            "bufferView" : 28,
            "componentType" : 5126,
            "count" : 2,
            "type" : "VEC3"
        }
    ],
    "bufferViews" : [
        {
            "buffer" : 0,
            "byteLength" : 66996,
            "byteOffset" : 0
        },
        {
            "buffer" : 0,
            "byteLength" : 66996,
            "byteOffset" : 66996
        },
        {
            "buffer" : 0,
            "byteLength" : 44664,
            "byteOffset" : 133992
        },
        {
            "buffer" : 0,
            "byteLength" : 14448,
            "byteOffset" : 178656
        },
        {
            "buffer" : 0,
            "byteLength" : 5100,
            "byteOffset" : 193104
        },
        {
            "buffer" : 0,
            "byteLength" : 5100,
            "byteOffset" : 198204
        },
        {
            "buffer" : 0,
            "byteLength" : 3400,
            "byteOffset" : 203304
        },
        {
            "buffer" : 0,
            "byteLength" : 1128,
            "byteOffset" : 206704
        },
        {
            "buffer" : 0,
            "byteLength" : 21072,
            "byteOffset" : 207832
        },
        {
            "buffer" : 0,
            "byteLength" : 21072,
            "byteOffset" : 228904
        },
        {
            "buffer" : 0,
            "byteLength" : 14048,
            "byteOffset" : 249976
        },
        {
            "buffer" : 0,
            "byteLength" : 4752,
            "byteOffset" : 264024
        },
        {
            "buffer" : 0,
            "byteLength" : 1512,
            "byteOffset" : 268776
        },
        {
            "buffer" : 0,
            "byteLength" : 1512,
            "byteOffset" : 270288
        },
        {
            "buffer" : 0,
            "byteLength" : 1008,
            "byteOffset" : 271800
        },
        {
            "buffer" : 0,
            "byteLength" : 288,
            "byteOffset" : 272808
        },
        {
            "buffer" : 0,
            "byteLength" : 816,
            "byteOffset" : 273096
        },
        {
            "buffer" : 0,
            "byteLength" : 816,
            "byteOffset" : 273912
        },
        {
            "buffer" : 0,
            "byteLength" : 544,
            "byteOffset" : 274728
        },
        {
            "buffer" : 0,
            "byteLength" : 168,
            "byteOffset" : 275272
        },
        {
            "buffer" : 0,
            "byteLength" : 135552,
            "byteOffset" : 275440
        },
        {
            "buffer" : 0,
            "byteLength" : 135552,
            "byteOffset" : 410992
        },
        {
            "buffer" : 0,
            "byteLength" : 90368,
            "byteOffset" : 546544
        },
        {
            "buffer" : 0,
            "byteLength" : 34560,
            "byteOffset" : 636912
        },
        {
            "buffer" : 0,
            "byteLength" : 156,
            "byteOffset" : 671472
        },
        {
            "buffer" : 0,
            "byteLength" : 468,
            "byteOffset" : 671628
        },
        {
            "buffer" : 0,
            "byteLength" : 624,
            "byteOffset" : 672096
        },
        {
            "buffer" : 0,
            "byteLength" : 8,
            "byteOffset" : 672720
        },
        {
            "buffer" : 0,
            "byteLength" : 24,
            "byteOffset" : 672728
        }
    ],
    "buffers" : [
        {
            "byteLength" : 672752,
            "uri" : "data:application/octet-stream;base64,"
        }
    ]
}
