{
    "asset" : {
        "generator" : "Khronos glTF Blender I/O v1.7.33",
        "version" : "2.0"
    },
    "scene" : 0,
    "scenes" : [
        {
            "name" : "Scene",
            "nodes" : [
                3
            ]
        }
    ],
    "nodes" : [
        {
            "mesh" : 0,
            "name" : "Curve.001",
            "rotation" : [
                0.6903455257415771,
                0.15304595232009888,
                -0.15304593741893768,
                0.6903455257415771
            ],
            "scale" : [
                35.60535430908203,
                35.60535430908203,
                35.6053581237793
            ],
            "translation" : [
                -0.6700167655944824,
                0.10034956783056259,
                -0.22144007682800293
            ]
        },
        {
            "mesh" : 1,
            "name" : "Curve.010",
            "rotation" : [
                -0.42759448289871216,
                0.2413356751203537,
                -0.8629133701324463,
                0.11958479881286621
            ],
            "scale" : [
                1.8649611473083496,
                1.8649611473083496,
                1.8649611473083496
            ],
            "translation" : [
                0.008836474269628525,
                0.005020339973270893,
                -0.01475511398166418
            ]
        },
        {
            "children" : [
                1
            ],
            "mesh" : 2,
            "name" : "Curve.011",
            "rotation" : [
                0.26279640197753906,
                -0.2591165006160736,
                0.926496148109436,
                0.0734957754611969
            ],
            "scale" : [
                55.28384017944336,
                55.28384017944336,
                55.28384780883789
            ],
            "translation" : [
                0.5961915254592896,
                0.01010097935795784,
                0.7851808071136475
            ]
        },
        {
            "children" : [
                0,
                2
            ],
            "mesh" : 3,
            "name" : "Cylinder.003",
            "scale" : [
                1.3639041185379028,
                1.3639041185379028,
                1.3639041185379028
            ],
            "translation" : [
                0.6072063446044922,
                0.06543223559856415,
                -0.7533373832702637
            ]
        }
    ],
    "animations" : [
        {
            "channels" : [
                {
                    "sampler" : 0,
                    "target" : {
                        "node" : 2,
                        "path" : "translation"
                    }
                },
                {
                    "sampler" : 1,
                    "target" : {
                        "node" : 2,
                        "path" : "rotation"
                    }
                },
                {
                    "sampler" : 2,
                    "target" : {
                        "node" : 2,
                        "path" : "scale"
                    }
                }
            ],
            "name" : "cloudAnimation_Curve.011",
            "samplers" : [
                {
                    "input" : 16,
                    "interpolation" : "LINEAR",
                    "output" : 17
                },
                {
                    "input" : 16,
                    "interpolation" : "LINEAR",
                    "output" : 18
                },
                {
                    "input" : 19,
                    "interpolation" : "LINEAR",
                    "output" : 20
                }
            ]
        },
        {
            "channels" : [
                {
                    "sampler" : 0,
                    "target" : {
                        "node" : 1,
                        "path" : "translation"
                    }
                },
                {
                    "sampler" : 1,
                    "target" : {
                        "node" : 1,
                        "path" : "rotation"
                    }
                },
                {
                    "sampler" : 2,
                    "target" : {
                        "node" : 1,
                        "path" : "scale"
                    }
                }
            ],
            "name" : "graphAnimation_Curve.010",
            "samplers" : [
                {
                    "input" : 16,
                    "interpolation" : "LINEAR",
                    "output" : 21
                },
                {
                    "input" : 16,
                    "interpolation" : "LINEAR",
                    "output" : 22
                },
                {
                    "input" : 19,
                    "interpolation" : "LINEAR",
                    "output" : 23
                }
            ]
        }
    ],
    "materials" : [
        {
            "name" : "Infinity skies",
            "pbrMetallicRoughness" : {
                "baseColorFactor" : [
                    0,
                    0.029283102601766586,
                    0.10090849548578262,
                    1
                ],
                "metallicFactor" : 0,
                "roughnessFactor" : 0.699999988079071
            }
        },
        {
            "name" : "Material.013",
            "pbrMetallicRoughness" : {
                "baseColorFactor" : [
                    0.023575564846396446,
                    0.33704811334609985,
                    0.8000000715255737,
                    1
                ],
                "metallicFactor" : 0,
                "roughnessFactor" : 0.5
            }
        },
        {
            "name" : "Material.014",
            "pbrMetallicRoughness" : {
                "baseColorFactor" : [
                    0.473613977432251,
                    0.8000000715255737,
                    0.7308154702186584,
                    1
                ],
                "metallicFactor" : 0,
                "roughnessFactor" : 0.5
            }
        },
        {
            "name" : "Base_01.003",
            "pbrMetallicRoughness" : {
                "baseColorFactor" : [
                    0.043710123747587204,
                    0.10799343138933182,
                    0.18025219440460205,
                    1
                ],
                "metallicFactor" : 0,
                "roughnessFactor" : 0.699999988079071
            }
        }
    ],
    "meshes" : [
        {
            "name" : "Curve",
            "primitives" : [
                {
                    "attributes" : {
                        "POSITION" : 0,
                        "NORMAL" : 1,
                        "TEXCOORD_0" : 2
                    },
                    "indices" : 3,
                    "material" : 0
                }
            ]
        },
        {
            "name" : "Curve.078",
            "primitives" : [
                {
                    "attributes" : {
                        "POSITION" : 4,
                        "NORMAL" : 5,
                        "TEXCOORD_0" : 6
                    },
                    "indices" : 7,
                    "material" : 1
                }
            ]
        },
        {
            "name" : "Curve.004",
            "primitives" : [
                {
                    "attributes" : {
                        "POSITION" : 8,
                        "NORMAL" : 9,
                        "TEXCOORD_0" : 10
                    },
                    "indices" : 11,
                    "material" : 2
                }
            ]
        },
        {
            "name" : "Cylinder.004",
            "primitives" : [
                {
                    "attributes" : {
                        "POSITION" : 12,
                        "NORMAL" : 13,
                        "TEXCOORD_0" : 14
                    },
                    "indices" : 15,
                    "material" : 3
                }
            ]
        }
    ],
    "accessors" : [
        {
            "bufferView" : 0,
            "componentType" : 5126,
            "count" : 49098,
            "max" : [
                0.028222715482115746,
                0,
                -5.1871611503884196e-05
            ],
            "min" : [
                2.770830178633332e-07,
                -0.003000000026077032,
                -0.016646292060613632
            ],
            "type" : "VEC3"
        },
        {
            "bufferView" : 1,
            "componentType" : 5126,
            "count" : 49098,
            "type" : "VEC3"
        },
        {
            "bufferView" : 2,
            "componentType" : 5126,
            "count" : 49098,
            "type" : "VEC2"
        },
        {
            "bufferView" : 3,
            "componentType" : 5123,
            "count" : 63084,
            "type" : "SCALAR"
        },
        {
            "bufferView" : 4,
            "componentType" : 5126,
            "count" : 86,
            "max" : [
                0.006491243839263916,
                0,
                -0.001410841941833496
            ],
            "min" : [
                0.0002822279930114746,
                -0.0010000000474974513,
                -0.005361199378967285
            ],
            "type" : "VEC3"
        },
        {
            "bufferView" : 5,
            "componentType" : 5126,
            "count" : 86,
            "type" : "VEC3"
        },
        {
            "bufferView" : 6,
            "componentType" : 5126,
            "count" : 86,
            "type" : "VEC2"
        },
        {
            "bufferView" : 7,
            "componentType" : 5123,
            "count" : 132,
            "type" : "SCALAR"
        },
        {
            "bufferView" : 8,
            "componentType" : 5126,
            "count" : 5142,
            "max" : [
                0.015400341711938381,
                0.010053028352558613,
                -0.0011286735534667969
            ],
            "min" : [
                -0.010740785859525204,
                -0.0006000000284984708,
                -0.02204040065407753
            ],
            "type" : "VEC3"
        },
        {
            "bufferView" : 9,
            "componentType" : 5126,
            "count" : 5142,
            "type" : "VEC3"
        },
        {
            "bufferView" : 10,
            "componentType" : 5126,
            "count" : 5142,
            "type" : "VEC2"
        },
        {
            "bufferView" : 11,
            "componentType" : 5123,
            "count" : 5580,
            "type" : "SCALAR"
        },
        {
            "bufferView" : 12,
            "componentType" : 5126,
            "count" : 11296,
            "max" : [
                0.9967329502105713,
                0.11267028003931046,
                0.9967329502105713
            ],
            "min" : [
                -0.9967329502105713,
                -0.05000002309679985,
                -0.9967329502105713
            ],
            "type" : "VEC3"
        },
        {
            "bufferView" : 13,
            "componentType" : 5126,
            "count" : 11296,
            "type" : "VEC3"
        },
        {
            "bufferView" : 14,
            "componentType" : 5126,
            "count" : 11296,
            "type" : "VEC2"
        },
        {
            "bufferView" : 15,
            "componentType" : 5123,
            "count" : 17280,
            "type" : "SCALAR"
        },
        {
            "bufferView" : 16,
            "componentType" : 5126,
            "count" : 39,
            "max" : [
                1.616666669646899
            ],
            "min" : [
                0.033333336313565574
            ],
            "type" : "SCALAR"
        },
        {
            "bufferView" : 17,
            "componentType" : 5126,
            "count" : 39,
            "type" : "VEC3"
        },
        {
            "bufferView" : 18,
            "componentType" : 5126,
            "count" : 39,
            "type" : "VEC4"
        },
        {
            "bufferView" : 19,
            "componentType" : 5126,
            "count" : 2,
            "max" : [
                1.616666669646899
            ],
            "min" : [
                0.033333336313565574
            ],
            "type" : "SCALAR"
        },
        {
            "bufferView" : 20,
            "componentType" : 5126,
            "count" : 2,
            "type" : "VEC3"
        },
        {
            "bufferView" : 21,
            "componentType" : 5126,
            "count" : 39,
            "type" : "VEC3"
        },
        {
            "bufferView" : 22,
            "componentType" : 5126,
            "count" : 39,
            "type" : "VEC4"
        },
        {
            "bufferView" : 23,
            "componentType" : 5126,
            "count" : 2,
            "type" : "VEC3"
        }
    ],
    "bufferViews" : [
        {
            "buffer" : 0,
            "byteLength" : 589176,
            "byteOffset" : 0
        },
        {
            "buffer" : 0,
            "byteLength" : 589176,
            "byteOffset" : 589176
        },
        {
            "buffer" : 0,
            "byteLength" : 392784,
            "byteOffset" : 1178352
        },
        {
            "buffer" : 0,
            "byteLength" : 126168,
            "byteOffset" : 1571136
        },
        {
            "buffer" : 0,
            "byteLength" : 1032,
            "byteOffset" : 1697304
        },
        {
            "buffer" : 0,
            "byteLength" : 1032,
            "byteOffset" : 1698336
        },
        {
            "buffer" : 0,
            "byteLength" : 688,
            "byteOffset" : 1699368
        },
        {
            "buffer" : 0,
            "byteLength" : 264,
            "byteOffset" : 1700056
        },
        {
            "buffer" : 0,
            "byteLength" : 61704,
            "byteOffset" : 1700320
        },
        {
            "buffer" : 0,
            "byteLength" : 61704,
            "byteOffset" : 1762024
        },
        {
            "buffer" : 0,
            "byteLength" : 41136,
            "byteOffset" : 1823728
        },
        {
            "buffer" : 0,
            "byteLength" : 11160,
            "byteOffset" : 1864864
        },
        {
            "buffer" : 0,
            "byteLength" : 135552,
            "byteOffset" : 1876024
        },
        {
            "buffer" : 0,
            "byteLength" : 135552,
            "byteOffset" : 2011576
        },
        {
            "buffer" : 0,
            "byteLength" : 90368,
            "byteOffset" : 2147128
        },
        {
            "buffer" : 0,
            "byteLength" : 34560,
            "byteOffset" : 2237496
        },
        {
            "buffer" : 0,
            "byteLength" : 156,
            "byteOffset" : 2272056
        },
        {
            "buffer" : 0,
            "byteLength" : 468,
            "byteOffset" : 2272212
        },
        {
            "buffer" : 0,
            "byteLength" : 624,
            "byteOffset" : 2272680
        },
        {
            "buffer" : 0,
            "byteLength" : 8,
            "byteOffset" : 2273304
        },
        {
            "buffer" : 0,
            "byteLength" : 24,
            "byteOffset" : 2273312
        },
        {
            "buffer" : 0,
            "byteLength" : 468,
            "byteOffset" : 2273336
        },
        {
            "buffer" : 0,
            "byteLength" : 624,
            "byteOffset" : 2273804
        },
        {
            "buffer" : 0,
            "byteLength" : 24,
            "byteOffset" : 2274428
        }
    ],
    "buffers" : [
        {
            "byteLength" : 2274452,
            "uri" : "data:application/octet-stream;base64,"
        }
    ]
}
