{
    "asset" : {
        "generator" : "Khronos glTF Blender I/O v1.7.33",
        "version" : "2.0"
    },
    "scene" : 0,
    "scenes" : [
        {
            "name" : "Scene",
            "nodes" : [
                4
            ]
        }
    ],
    "nodes" : [
        {
            "mesh" : 0,
            "name" : "Curve.002",
            "rotation" : [
                0.6903455257415771,
                0.15304593741893768,
                -0.15304593741893768,
                0.6903455257415771
            ],
            "scale" : [
                19.724027633666992,
                19.724027633666992,
                19.724027633666992
            ],
            "translation" : [
                -0.7728962898254395,
                0.06928782165050507,
                -0.18830585479736328
            ]
        },
        {
            "mesh" : 1,
            "name" : "Cube.001",
            "rotation" : [
                0,
                -0.7122488617897034,
                0,
                0.701927125453949
            ],
            "scale" : [
                0.0020618585404008627,
                0.0003721029497683048,
                0.0020618585404008627
            ],
            "translation" : [
                0.0034069977700710297,
                -0.0004169885069131851,
                -0.003162538632750511
            ]
        },
        {
            "mesh" : 2,
            "name" : "Curve.013",
            "rotation" : [
                0.16568011045455933,
                -0.022471390664577484,
                0.13181094825267792,
                0.9770727753639221
            ],
            "scale" : [
                0.721906304359436,
                0.9505590200424194,
                0.721906304359436
            ],
            "translation" : [
                0.0004885282833129168,
                -0.0016696760430932045,
                0.008335275575518608
            ]
        },
        {
            "children" : [
                1,
                2
            ],
            "mesh" : 3,
            "name" : "Curve.014",
            "rotation" : [
                0,
                0.6358640193939209,
                0,
                0.7718011736869812
            ],
            "scale" : [
                102.1689224243164,
                77.59264373779297,
                102.1689224243164
            ],
            "translation" : [
                0.003956884145736694,
                0.17928123474121094,
                0.6093006134033203
            ]
        },
        {
            "children" : [
                0,
                3
            ],
            "mesh" : 4,
            "name" : "Cylinder.002",
            "scale" : [
                1.3639041185379028,
                1.3639041185379028,
                1.3639041185379028
            ],
            "translation" : [
                0.6347165107727051,
                0.06543223559856415,
                -0.5961728096008301
            ]
        }
    ],
    "animations" : [
        {
            "channels" : [
                {
                    "sampler" : 0,
                    "target" : {
                        "node" : 3,
                        "path" : "translation"
                    }
                },
                {
                    "sampler" : 1,
                    "target" : {
                        "node" : 3,
                        "path" : "rotation"
                    }
                },
                {
                    "sampler" : 2,
                    "target" : {
                        "node" : 3,
                        "path" : "scale"
                    }
                }
            ],
            "name" : "calendarAnimation_Curve.014",
            "samplers" : [
                {
                    "input" : 20,
                    "interpolation" : "LINEAR",
                    "output" : 21
                },
                {
                    "input" : 20,
                    "interpolation" : "LINEAR",
                    "output" : 22
                },
                {
                    "input" : 23,
                    "interpolation" : "LINEAR",
                    "output" : 24
                }
            ]
        },
        {
            "channels" : [
                {
                    "sampler" : 0,
                    "target" : {
                        "node" : 2,
                        "path" : "translation"
                    }
                },
                {
                    "sampler" : 1,
                    "target" : {
                        "node" : 2,
                        "path" : "rotation"
                    }
                },
                {
                    "sampler" : 2,
                    "target" : {
                        "node" : 2,
                        "path" : "scale"
                    }
                }
            ],
            "name" : "dashboardAnimation_Curve.013",
            "samplers" : [
                {
                    "input" : 20,
                    "interpolation" : "LINEAR",
                    "output" : 25
                },
                {
                    "input" : 20,
                    "interpolation" : "LINEAR",
                    "output" : 26
                },
                {
                    "input" : 23,
                    "interpolation" : "LINEAR",
                    "output" : 27
                }
            ]
        }
    ],
    "materials" : [
        {
            "name" : "NFT history",
            "pbrMetallicRoughness" : {
                "baseColorFactor" : [
                    0.027311665937304497,
                    0.007604379206895828,
                    0.10091116279363632,
                    1
                ],
                "metallicFactor" : 0,
                "roughnessFactor" : 0.699999988079071
            }
        },
        {
            "name" : "Material.018",
            "pbrMetallicRoughness" : {
                "baseColorFactor" : [
                    0.1356334090232849,
                    0.5906189680099487,
                    0.7758224010467529,
                    1
                ],
                "metallicFactor" : 0,
                "roughnessFactor" : 0.5
            }
        },
        {
            "name" : "Material.017",
            "pbrMetallicRoughness" : {
                "baseColorFactor" : [
                    0.2581830620765686,
                    0.09305895119905472,
                    0.2917707562446594,
                    1
                ],
                "metallicFactor" : 0,
                "roughnessFactor" : 0.5
            }
        },
        {
            "name" : "nft-history",
            "pbrMetallicRoughness" : {
                "baseColorFactor" : [
                    0.0943850427865982,
                    0.05229993537068367,
                    0.1802523136138916,
                    1
                ],
                "metallicFactor" : 0,
                "roughnessFactor" : 0.699999988079071
            }
        }
    ],
    "meshes" : [
        {
            "name" : "Curve.043",
            "primitives" : [
                {
                    "attributes" : {
                        "POSITION" : 0,
                        "NORMAL" : 1,
                        "TEXCOORD_0" : 2
                    },
                    "indices" : 3,
                    "material" : 0
                }
            ]
        },
        {
            "name" : "Cube.004",
            "primitives" : [
                {
                    "attributes" : {
                        "POSITION" : 4,
                        "NORMAL" : 5,
                        "TEXCOORD_0" : 6
                    },
                    "indices" : 7
                }
            ]
        },
        {
            "name" : "Curve.087",
            "primitives" : [
                {
                    "attributes" : {
                        "POSITION" : 8,
                        "NORMAL" : 9,
                        "TEXCOORD_0" : 10
                    },
                    "indices" : 11,
                    "material" : 1
                }
            ]
        },
        {
            "name" : "Curve.088",
            "primitives" : [
                {
                    "attributes" : {
                        "POSITION" : 12,
                        "NORMAL" : 13,
                        "TEXCOORD_0" : 14
                    },
                    "indices" : 15,
                    "material" : 2
                }
            ]
        },
        {
            "name" : "Cylinder.003",
            "primitives" : [
                {
                    "attributes" : {
                        "POSITION" : 16,
                        "NORMAL" : 17,
                        "TEXCOORD_0" : 18
                    },
                    "indices" : 19,
                    "material" : 3
                }
            ]
        }
    ],
    "accessors" : [
        {
            "bufferView" : 0,
            "componentType" : 5126,
            "count" : 6056,
            "max" : [
                0.05975443869829178,
                0,
                -0.001641655806452036
            ],
            "min" : [
                2.672878639509949e-18,
                -0.003000000026077032,
                -0.01019238866865635
            ],
            "type" : "VEC3"
        },
        {
            "bufferView" : 1,
            "componentType" : 5126,
            "count" : 6056,
            "type" : "VEC3"
        },
        {
            "bufferView" : 2,
            "componentType" : 5126,
            "count" : 6056,
            "type" : "VEC2"
        },
        {
            "bufferView" : 3,
            "componentType" : 5123,
            "count" : 7482,
            "type" : "SCALAR"
        },
        {
            "bufferView" : 4,
            "componentType" : 5126,
            "count" : 24,
            "max" : [
                1,
                1,
                1
            ],
            "min" : [
                -1,
                -1,
                -1
            ],
            "type" : "VEC3"
        },
        {
            "bufferView" : 5,
            "componentType" : 5126,
            "count" : 24,
            "type" : "VEC3"
        },
        {
            "bufferView" : 6,
            "componentType" : 5126,
            "count" : 24,
            "type" : "VEC2"
        },
        {
            "bufferView" : 7,
            "componentType" : 5123,
            "count" : 36,
            "type" : "SCALAR"
        },
        {
            "bufferView" : 8,
            "componentType" : 5126,
            "count" : 3891,
            "max" : [
                0.0076201558113098145,
                0,
                -0.0008465051651000977
            ],
            "min" : [
                0.0008466839790344238,
                -0.0010000000474974513,
                -0.007618546485900879
            ],
            "type" : "VEC3"
        },
        {
            "bufferView" : 9,
            "componentType" : 5126,
            "count" : 3891,
            "type" : "VEC3"
        },
        {
            "bufferView" : 10,
            "componentType" : 5126,
            "count" : 3891,
            "type" : "VEC2"
        },
        {
            "bufferView" : 11,
            "componentType" : 5123,
            "count" : 4824,
            "type" : "SCALAR"
        },
        {
            "bufferView" : 12,
            "componentType" : 5126,
            "count" : 1814,
            "max" : [
                0.005926787853240967,
                0,
                -0.0008465051651000977
            ],
            "min" : [
                0.0008466839790344238,
                -0.0010000000474974513,
                -0.006489872932434082
            ],
            "type" : "VEC3"
        },
        {
            "bufferView" : 13,
            "componentType" : 5126,
            "count" : 1814,
            "type" : "VEC3"
        },
        {
            "bufferView" : 14,
            "componentType" : 5126,
            "count" : 1814,
            "type" : "VEC2"
        },
        {
            "bufferView" : 15,
            "componentType" : 5123,
            "count" : 2628,
            "type" : "SCALAR"
        },
        {
            "bufferView" : 16,
            "componentType" : 5126,
            "count" : 11296,
            "max" : [
                0.9967329502105713,
                0.11267028003931046,
                0.9967329502105713
            ],
            "min" : [
                -0.9967329502105713,
                -0.05000002309679985,
                -0.9967329502105713
            ],
            "type" : "VEC3"
        },
        {
            "bufferView" : 17,
            "componentType" : 5126,
            "count" : 11296,
            "type" : "VEC3"
        },
        {
            "bufferView" : 18,
            "componentType" : 5126,
            "count" : 11296,
            "type" : "VEC2"
        },
        {
            "bufferView" : 19,
            "componentType" : 5123,
            "count" : 17280,
            "type" : "SCALAR"
        },
        {
            "bufferView" : 20,
            "componentType" : 5126,
            "count" : 39,
            "max" : [
                1.616666669646899
            ],
            "min" : [
                0.033333336313565574
            ],
            "type" : "SCALAR"
        },
        {
            "bufferView" : 21,
            "componentType" : 5126,
            "count" : 39,
            "type" : "VEC3"
        },
        {
            "bufferView" : 22,
            "componentType" : 5126,
            "count" : 39,
            "type" : "VEC4"
        },
        {
            "bufferView" : 23,
            "componentType" : 5126,
            "count" : 2,
            "max" : [
                1.616666669646899
            ],
            "min" : [
                0.033333336313565574
            ],
            "type" : "SCALAR"
        },
        {
            "bufferView" : 24,
            "componentType" : 5126,
            "count" : 2,
            "type" : "VEC3"
        },
        {
            "bufferView" : 25,
            "componentType" : 5126,
            "count" : 39,
            "type" : "VEC3"
        },
        {
            "bufferView" : 26,
            "componentType" : 5126,
            "count" : 39,
            "type" : "VEC4"
        },
        {
            "bufferView" : 27,
            "componentType" : 5126,
            "count" : 2,
            "type" : "VEC3"
        }
    ],
    "bufferViews" : [
        {
            "buffer" : 0,
            "byteLength" : 72672,
            "byteOffset" : 0
        },
        {
            "buffer" : 0,
            "byteLength" : 72672,
            "byteOffset" : 72672
        },
        {
            "buffer" : 0,
            "byteLength" : 48448,
            "byteOffset" : 145344
        },
        {
            "buffer" : 0,
            "byteLength" : 14964,
            "byteOffset" : 193792
        },
        {
            "buffer" : 0,
            "byteLength" : 288,
            "byteOffset" : 208756
        },
        {
            "buffer" : 0,
            "byteLength" : 288,
            "byteOffset" : 209044
        },
        {
            "buffer" : 0,
            "byteLength" : 192,
            "byteOffset" : 209332
        },
        {
            "buffer" : 0,
            "byteLength" : 72,
            "byteOffset" : 209524
        },
        {
            "buffer" : 0,
            "byteLength" : 46692,
            "byteOffset" : 209596
        },
        {
            "buffer" : 0,
            "byteLength" : 46692,
            "byteOffset" : 256288
        },
        {
            "buffer" : 0,
            "byteLength" : 31128,
            "byteOffset" : 302980
        },
        {
            "buffer" : 0,
            "byteLength" : 9648,
            "byteOffset" : 334108
        },
        {
            "buffer" : 0,
            "byteLength" : 21768,
            "byteOffset" : 343756
        },
        {
            "buffer" : 0,
            "byteLength" : 21768,
            "byteOffset" : 365524
        },
        {
            "buffer" : 0,
            "byteLength" : 14512,
            "byteOffset" : 387292
        },
        {
            "buffer" : 0,
            "byteLength" : 5256,
            "byteOffset" : 401804
        },
        {
            "buffer" : 0,
            "byteLength" : 135552,
            "byteOffset" : 407060
        },
        {
            "buffer" : 0,
            "byteLength" : 135552,
            "byteOffset" : 542612
        },
        {
            "buffer" : 0,
            "byteLength" : 90368,
            "byteOffset" : 678164
        },
        {
            "buffer" : 0,
            "byteLength" : 34560,
            "byteOffset" : 768532
        },
        {
            "buffer" : 0,
            "byteLength" : 156,
            "byteOffset" : 803092
        },
        {
            "buffer" : 0,
            "byteLength" : 468,
            "byteOffset" : 803248
        },
        {
            "buffer" : 0,
            "byteLength" : 624,
            "byteOffset" : 803716
        },
        {
            "buffer" : 0,
            "byteLength" : 8,
            "byteOffset" : 804340
        },
        {
            "buffer" : 0,
            "byteLength" : 24,
            "byteOffset" : 804348
        },
        {
            "buffer" : 0,
            "byteLength" : 468,
            "byteOffset" : 804372
        },
        {
            "buffer" : 0,
            "byteLength" : 624,
            "byteOffset" : 804840
        },
        {
            "buffer" : 0,
            "byteLength" : 24,
            "byteOffset" : 805464
        }
    ],
    "buffers" : [
        {
            "byteLength" : 805488,
            "uri" : "data:application/octet-stream;base64,"
        }
    ]
}
