{
    "asset" : {
        "generator" : "Khronos glTF Blender I/O v1.7.33",
        "version" : "2.0"
    },
    "scene" : 0,
    "scenes" : [
        {
            "name" : "Scene",
            "nodes" : [
                5
            ]
        }
    ],
    "nodes" : [
        {
            "mesh" : 0,
            "name" : "Curve.005",
            "rotation" : [
                0.6903455257415771,
                0.15304593741893768,
                -0.15304595232009888,
                0.6903455257415771
            ],
            "scale" : [
                10.826125144958496,
                22.902172088623047,
                10.826126098632812
            ],
            "translation" : [
                -0.7251839637756348,
                0.11412637680768967,
                -0.2091996669769287
            ]
        },
        {
            "mesh" : 1,
            "name" : "Cube.002",
            "rotation" : [
                0,
                -0.707960844039917,
                0,
                0.7062517404556274
            ],
            "scale" : [
                -0.0023974941577762365,
                -0.0006644351524300873,
                -0.001935654552653432
            ],
            "translation" : [
                0.00339561328291893,
                -0.00028447341173887253,
                -0.0033703818917274475
            ]
        },
        {
            "children" : [
                1
            ],
            "mesh" : 2,
            "name" : "Curve.015",
            "rotation" : [
                0,
                -0.8247091174125671,
                0,
                0.5655571222305298
            ],
            "scale" : [
                -110.52603912353516,
                -110.52605438232422,
                -110.52603912353516
            ],
            "translation" : [
                0.009799152612686157,
                0.06262212991714478,
                0.7743145227432251
            ]
        },
        {
            "mesh" : 3,
            "name" : "Curve.016",
            "translation" : [
                0,
                -0.0003208788111805916,
                0
            ]
        },
        {
            "children" : [
                3
            ],
            "mesh" : 4,
            "name" : "Curve.017",
            "rotation" : [
                0,
                -0.4236457347869873,
                0,
                0.9058279395103455
            ],
            "scale" : [
                47.11344528198242,
                47.11344528198242,
                47.11344528198242
            ],
            "translation" : [
                -0.02295491099357605,
                0.17957842350006104,
                -0.13876816630363464
            ]
        },
        {
            "children" : [
                0,
                2,
                4
            ],
            "mesh" : 5,
            "name" : "Cylinder.001",
            "scale" : [
                1.3639041185379028,
                1.3639041185379028,
                1.3639041185379028
            ],
            "translation" : [
                0.6072063446044922,
                0.06543223559856415,
                -0.7533373832702637
            ]
        }
    ],
    "animations" : [
        {
            "channels" : [
                {
                    "sampler" : 0,
                    "target" : {
                        "node" : 2,
                        "path" : "translation"
                    }
                },
                {
                    "sampler" : 1,
                    "target" : {
                        "node" : 2,
                        "path" : "rotation"
                    }
                },
                {
                    "sampler" : 2,
                    "target" : {
                        "node" : 2,
                        "path" : "scale"
                    }
                }
            ],
            "name" : "calculatorAnimation_Curve.001",
            "samplers" : [
                {
                    "input" : 28,
                    "interpolation" : "LINEAR",
                    "output" : 29
                },
                {
                    "input" : 28,
                    "interpolation" : "LINEAR",
                    "output" : 30
                },
                {
                    "input" : 31,
                    "interpolation" : "LINEAR",
                    "output" : 32
                }
            ]
        },
        {
            "channels" : [
                {
                    "sampler" : 0,
                    "target" : {
                        "node" : 4,
                        "path" : "translation"
                    }
                },
                {
                    "sampler" : 1,
                    "target" : {
                        "node" : 4,
                        "path" : "rotation"
                    }
                },
                {
                    "sampler" : 2,
                    "target" : {
                        "node" : 4,
                        "path" : "scale"
                    }
                }
            ],
            "name" : "exchangeAnimation_Curve.001",
            "samplers" : [
                {
                    "input" : 28,
                    "interpolation" : "LINEAR",
                    "output" : 33
                },
                {
                    "input" : 28,
                    "interpolation" : "LINEAR",
                    "output" : 34
                },
                {
                    "input" : 31,
                    "interpolation" : "LINEAR",
                    "output" : 35
                }
            ]
        }
    ],
    "materials" : [
        {
            "name" : "Safemoon.001",
            "pbrMetallicRoughness" : {
                "baseColorFactor" : [
                    0.10090931504964828,
                    0.007431628182530403,
                    0.07385081797838211,
                    1
                ],
                "metallicFactor" : 0,
                "roughnessFactor" : 0.699999988079071
            }
        },
        {
            "name" : "Material.001",
            "pbrMetallicRoughness" : {
                "baseColorFactor" : [
                    0.5088815689086914,
                    0.17464745044708252,
                    0.054480306804180145,
                    1
                ],
                "metallicFactor" : 0,
                "roughnessFactor" : 0.5
            }
        },
        {
            "name" : "Material.002",
            "pbrMetallicRoughness" : {
                "baseColorFactor" : [
                    0,
                    0.304987370967865,
                    0.24620142579078674,
                    1
                ],
                "metallicFactor" : 0,
                "roughnessFactor" : 0.5
            }
        },
        {
            "name" : "SVGMat.001",
            "pbrMetallicRoughness" : {
                "metallicFactor" : 0,
                "roughnessFactor" : 0.4000000059604645
            }
        },
        {
            "name" : "SVGMat.002",
            "pbrMetallicRoughness" : {
                "metallicFactor" : 0,
                "roughnessFactor" : 0.4000000059604645
            }
        },
        {
            "name" : "Base_01.002",
            "pbrMetallicRoughness" : {
                "baseColorFactor" : [
                    0.14472824335098267,
                    0.06671462953090668,
                    0.18025419116020203,
                    1
                ],
                "metallicFactor" : 0,
                "roughnessFactor" : 0.699999988079071
            }
        }
    ],
    "meshes" : [
        {
            "name" : "Curve.001",
            "primitives" : [
                {
                    "attributes" : {
                        "POSITION" : 0,
                        "NORMAL" : 1,
                        "TEXCOORD_0" : 2
                    },
                    "indices" : 3,
                    "material" : 0
                }
            ]
        },
        {
            "name" : "Cube.001",
            "primitives" : [
                {
                    "attributes" : {
                        "POSITION" : 4,
                        "NORMAL" : 5,
                        "TEXCOORD_0" : 6
                    },
                    "indices" : 7
                }
            ]
        },
        {
            "name" : "Curve.002",
            "primitives" : [
                {
                    "attributes" : {
                        "POSITION" : 8,
                        "NORMAL" : 9,
                        "TEXCOORD_0" : 10
                    },
                    "indices" : 11,
                    "material" : 1
                }
            ]
        },
        {
            "name" : "Curve.004",
            "primitives" : [
                {
                    "attributes" : {
                        "POSITION" : 12,
                        "NORMAL" : 13,
                        "TEXCOORD_0" : 14
                    },
                    "indices" : 15,
                    "material" : 2
                }
            ]
        },
        {
            "name" : "Curve.003",
            "primitives" : [
                {
                    "attributes" : {
                        "POSITION" : 16,
                        "NORMAL" : 17,
                        "TEXCOORD_0" : 18
                    },
                    "indices" : 19,
                    "material" : 3
                },
                {
                    "attributes" : {
                        "POSITION" : 20,
                        "NORMAL" : 21,
                        "TEXCOORD_0" : 22
                    },
                    "indices" : 23,
                    "material" : 4
                }
            ]
        },
        {
            "name" : "Cylinder.002",
            "primitives" : [
                {
                    "attributes" : {
                        "POSITION" : 24,
                        "NORMAL" : 25,
                        "TEXCOORD_0" : 26
                    },
                    "indices" : 27,
                    "material" : 5
                }
            ]
        }
    ],
    "accessors" : [
        {
            "bufferView" : 0,
            "componentType" : 5126,
            "count" : 19703,
            "max" : [
                0.10629778355360031,
                0,
                0
            ],
            "min" : [
                0,
                -0.003000000026077032,
                -0.016083598136901855
            ],
            "type" : "VEC3"
        },
        {
            "bufferView" : 1,
            "componentType" : 5126,
            "count" : 19703,
            "type" : "VEC3"
        },
        {
            "bufferView" : 2,
            "componentType" : 5126,
            "count" : 19703,
            "type" : "VEC2"
        },
        {
            "bufferView" : 3,
            "componentType" : 5123,
            "count" : 25308,
            "type" : "SCALAR"
        },
        {
            "bufferView" : 4,
            "componentType" : 5126,
            "count" : 24,
            "max" : [
                1,
                1,
                1
            ],
            "min" : [
                -1,
                -1,
                -1
            ],
            "type" : "VEC3"
        },
        {
            "bufferView" : 5,
            "componentType" : 5126,
            "count" : 24,
            "type" : "VEC3"
        },
        {
            "bufferView" : 6,
            "componentType" : 5126,
            "count" : 24,
            "type" : "VEC2"
        },
        {
            "bufferView" : 7,
            "componentType" : 5123,
            "count" : 36,
            "type" : "SCALAR"
        },
        {
            "bufferView" : 8,
            "componentType" : 5126,
            "count" : 5257,
            "max" : [
                0.005644559860229492,
                0,
                -0.0005643367767333984
            ],
            "min" : [
                0.0011289119720458984,
                -0.0010000000474974513,
                -0.006207704544067383
            ],
            "type" : "VEC3"
        },
        {
            "bufferView" : 9,
            "componentType" : 5126,
            "count" : 5257,
            "type" : "VEC3"
        },
        {
            "bufferView" : 10,
            "componentType" : 5126,
            "count" : 5257,
            "type" : "VEC2"
        },
        {
            "bufferView" : 11,
            "componentType" : 5123,
            "count" : 6858,
            "type" : "SCALAR"
        },
        {
            "bufferView" : 12,
            "componentType" : 5126,
            "count" : 440,
            "max" : [
                0.012418031692504883,
                0,
                -0.0011286735534667969
            ],
            "min" : [
                0.0011289119720458984,
                -0.001500000013038516,
                -0.012415409088134766
            ],
            "type" : "VEC3"
        },
        {
            "bufferView" : 13,
            "componentType" : 5126,
            "count" : 440,
            "type" : "VEC3"
        },
        {
            "bufferView" : 14,
            "componentType" : 5126,
            "count" : 440,
            "type" : "VEC2"
        },
        {
            "bufferView" : 15,
            "componentType" : 5123,
            "count" : 564,
            "type" : "SCALAR"
        },
        {
            "bufferView" : 16,
            "componentType" : 5126,
            "count" : 38,
            "max" : [
                0.010160207748413086,
                0,
                -0.00733637809753418
            ],
            "min" : [
                0.0033867359161376953,
                -0.0010000000474974513,
                -0.009875893592834473
            ],
            "type" : "VEC3"
        },
        {
            "bufferView" : 17,
            "componentType" : 5126,
            "count" : 38,
            "type" : "VEC3"
        },
        {
            "bufferView" : 18,
            "componentType" : 5126,
            "count" : 38,
            "type" : "VEC2"
        },
        {
            "bufferView" : 19,
            "componentType" : 5123,
            "count" : 48,
            "type" : "SCALAR"
        },
        {
            "bufferView" : 20,
            "componentType" : 5126,
            "count" : 34,
            "max" : [
                0.010160206817090511,
                0,
                -0.0036681899800896645
            ],
            "min" : [
                0.0033867352176457644,
                -0.0010000000474974513,
                -0.006207705475389957
            ],
            "type" : "VEC3"
        },
        {
            "bufferView" : 21,
            "componentType" : 5126,
            "count" : 34,
            "type" : "VEC3"
        },
        {
            "bufferView" : 22,
            "componentType" : 5126,
            "count" : 34,
            "type" : "VEC2"
        },
        {
            "bufferView" : 23,
            "componentType" : 5123,
            "count" : 48,
            "type" : "SCALAR"
        },
        {
            "bufferView" : 24,
            "componentType" : 5126,
            "count" : 11296,
            "max" : [
                0.9967329502105713,
                0.11267028003931046,
                0.9967329502105713
            ],
            "min" : [
                -0.9967329502105713,
                -0.05000002309679985,
                -0.9967329502105713
            ],
            "type" : "VEC3"
        },
        {
            "bufferView" : 25,
            "componentType" : 5126,
            "count" : 11296,
            "type" : "VEC3"
        },
        {
            "bufferView" : 26,
            "componentType" : 5126,
            "count" : 11296,
            "type" : "VEC2"
        },
        {
            "bufferView" : 27,
            "componentType" : 5123,
            "count" : 17280,
            "type" : "SCALAR"
        },
        {
            "bufferView" : 28,
            "componentType" : 5126,
            "count" : 39,
            "max" : [
                1.616666669646899
            ],
            "min" : [
                0.033333336313565574
            ],
            "type" : "SCALAR"
        },
        {
            "bufferView" : 29,
            "componentType" : 5126,
            "count" : 39,
            "type" : "VEC3"
        },
        {
            "bufferView" : 30,
            "componentType" : 5126,
            "count" : 39,
            "type" : "VEC4"
        },
        {
            "bufferView" : 31,
            "componentType" : 5126,
            "count" : 2,
            "max" : [
                1.616666669646899
            ],
            "min" : [
                0.033333336313565574
            ],
            "type" : "SCALAR"
        },
        {
            "bufferView" : 32,
            "componentType" : 5126,
            "count" : 2,
            "type" : "VEC3"
        },
        {
            "bufferView" : 33,
            "componentType" : 5126,
            "count" : 39,
            "type" : "VEC3"
        },
        {
            "bufferView" : 34,
            "componentType" : 5126,
            "count" : 39,
            "type" : "VEC4"
        },
        {
            "bufferView" : 35,
            "componentType" : 5126,
            "count" : 2,
            "type" : "VEC3"
        }
    ],
    "bufferViews" : [
        {
            "buffer" : 0,
            "byteLength" : 236436,
            "byteOffset" : 0
        },
        {
            "buffer" : 0,
            "byteLength" : 236436,
            "byteOffset" : 236436
        },
        {
            "buffer" : 0,
            "byteLength" : 157624,
            "byteOffset" : 472872
        },
        {
            "buffer" : 0,
            "byteLength" : 50616,
            "byteOffset" : 630496
        },
        {
            "buffer" : 0,
            "byteLength" : 288,
            "byteOffset" : 681112
        },
        {
            "buffer" : 0,
            "byteLength" : 288,
            "byteOffset" : 681400
        },
        {
            "buffer" : 0,
            "byteLength" : 192,
            "byteOffset" : 681688
        },
        {
            "buffer" : 0,
            "byteLength" : 72,
            "byteOffset" : 681880
        },
        {
            "buffer" : 0,
            "byteLength" : 63084,
            "byteOffset" : 681952
        },
        {
            "buffer" : 0,
            "byteLength" : 63084,
            "byteOffset" : 745036
        },
        {
            "buffer" : 0,
            "byteLength" : 42056,
            "byteOffset" : 808120
        },
        {
            "buffer" : 0,
            "byteLength" : 13716,
            "byteOffset" : 850176
        },
        {
            "buffer" : 0,
            "byteLength" : 5280,
            "byteOffset" : 863892
        },
        {
            "buffer" : 0,
            "byteLength" : 5280,
            "byteOffset" : 869172
        },
        {
            "buffer" : 0,
            "byteLength" : 3520,
            "byteOffset" : 874452
        },
        {
            "buffer" : 0,
            "byteLength" : 1128,
            "byteOffset" : 877972
        },
        {
            "buffer" : 0,
            "byteLength" : 456,
            "byteOffset" : 879100
        },
        {
            "buffer" : 0,
            "byteLength" : 456,
            "byteOffset" : 879556
        },
        {
            "buffer" : 0,
            "byteLength" : 304,
            "byteOffset" : 880012
        },
        {
            "buffer" : 0,
            "byteLength" : 96,
            "byteOffset" : 880316
        },
        {
            "buffer" : 0,
            "byteLength" : 408,
            "byteOffset" : 880412
        },
        {
            "buffer" : 0,
            "byteLength" : 408,
            "byteOffset" : 880820
        },
        {
            "buffer" : 0,
            "byteLength" : 272,
            "byteOffset" : 881228
        },
        {
            "buffer" : 0,
            "byteLength" : 96,
            "byteOffset" : 881500
        },
        {
            "buffer" : 0,
            "byteLength" : 135552,
            "byteOffset" : 881596
        },
        {
            "buffer" : 0,
            "byteLength" : 135552,
            "byteOffset" : 1017148
        },
        {
            "buffer" : 0,
            "byteLength" : 90368,
            "byteOffset" : 1152700
        },
        {
            "buffer" : 0,
            "byteLength" : 34560,
            "byteOffset" : 1243068
        },
        {
            "buffer" : 0,
            "byteLength" : 156,
            "byteOffset" : 1277628
        },
        {
            "buffer" : 0,
            "byteLength" : 468,
            "byteOffset" : 1277784
        },
        {
            "buffer" : 0,
            "byteLength" : 624,
            "byteOffset" : 1278252
        },
        {
            "buffer" : 0,
            "byteLength" : 8,
            "byteOffset" : 1278876
        },
        {
            "buffer" : 0,
            "byteLength" : 24,
            "byteOffset" : 1278884
        },
        {
            "buffer" : 0,
            "byteLength" : 468,
            "byteOffset" : 1278908
        },
        {
            "buffer" : 0,
            "byteLength" : 624,
            "byteOffset" : 1279376
        },
        {
            "buffer" : 0,
            "byteLength" : 24,
            "byteOffset" : 1280000
        }
    ],
    "buffers" : [
        {
            "byteLength" : 1280024,
            "uri" : "data:application/octet-stream;base64,"
        }
    ]
}
