{
    "asset" : {
        "generator" : "Khronos glTF Blender I/O v1.7.33",
        "version" : "2.0"
    },
    "scene" : 0,
    "scenes" : [
        {
            "name" : "Scene",
            "nodes" : [
                0
            ]
        }
    ],
    "nodes" : [
        {
            "mesh" : 0,
            "name" : "Cylinder",
            "scale" : [
                1.3639041185379028,
                1.3639041185379028,
                1.3639041185379028
            ],
            "translation" : [
                0.6072063446044922,
                0.06543223559856415,
                -0.7533373832702637
            ]
        }
    ],
    "materials" : [
        {
            "doubleSided" : false,
            "name" : "Base_01.001",
            "pbrMetallicRoughness" : {
                "baseColorFactor" : [
                    0.03873765096068382,
                    0.04807863011956215,
                    0.18025624752044678,
                    1
                ],
                "metallicFactor" : 0,
                "roughnessFactor" : 0.699999988079071
            }
        }
    ],
    "meshes" : [
        {
            "name" : "Cylinder.001",
            "primitives" : [
                {
                    "attributes" : {
                        "POSITION" : 0,
                        "NORMAL" : 1,
                        "TEXCOORD_0" : 2
                    },
                    "indices" : 3,
                    "material" : 0
                }
            ]
        }
    ],
    "accessors" : [
        {
            "bufferView" : 0,
            "componentType" : 5126,
            "count" : 11296,
            "max" : [
                0.9967329502105713,
                0.11267028003931046,
                0.9967329502105713
            ],
            "min" : [
                -0.9967329502105713,
                -0.05000002309679985,
                -0.9967329502105713
            ],
            "type" : "VEC3"
        },
        {
            "bufferView" : 1,
            "componentType" : 5126,
            "count" : 11296,
            "type" : "VEC3"
        },
        {
            "bufferView" : 2,
            "componentType" : 5126,
            "count" : 11296,
            "type" : "VEC2"
        },
        {
            "bufferView" : 3,
            "componentType" : 5123,
            "count" : 17280,
            "type" : "SCALAR"
        }
    ],
    "bufferViews" : [
        {
            "buffer" : 0,
            "byteLength" : 135552,
            "byteOffset" : 0
        },
        {
            "buffer" : 0,
            "byteLength" : 135552,
            "byteOffset" : 135552
        },
        {
            "buffer" : 0,
            "byteLength" : 90368,
            "byteOffset" : 271104
        },
        {
            "buffer" : 0,
            "byteLength" : 34560,
            "byteOffset" : 361472
        }
    ],
    "buffers" : [
        {
            "byteLength" : 396032,
            "uri" : "data:application/octet-stream;base64,"
        }
    ]
}
