{
    "asset" : {
        "generator" : "Khronos glTF Blender I/O v1.7.33",
        "version" : "2.0"
    },
    "scene" : 0,
    "scenes" : [
        {
            "name" : "Scene",
            "nodes" : [
                0,
                1
            ]
        }
    ],
    "nodes" : [
        {
            "mesh" : 0,
            "name" : "Plane",
            "scale" : [
                -0.2810836136341095,
                -0.2810836732387543,
                -0.2810836732387543
            ],
            "translation" : [
                -2.6653873920440674,
                0,
                -3.4946188926696777
            ]
        },
        {
            "mesh" : 1,
            "name" : "Sphere",
            "scale" : [
                0.6135177612304688,
                0.6135177612304688,
                0.6135177612304688
            ],
            "translation" : [
                -4.90598726272583,
                5.2393574714660645,
                -9.713125228881836
            ]
        }
    ],
    "animations" : [
        {
            "channels" : [
                {
                    "sampler" : 0,
                    "target" : {
                        "node" : 1,
                        "path" : "translation"
                    }
                },
                {
                    "sampler" : 1,
                    "target" : {
                        "node" : 1,
                        "path" : "rotation"
                    }
                },
                {
                    "sampler" : 2,
                    "target" : {
                        "node" : 1,
                        "path" : "scale"
                    }
                }
            ],
            "name" : "SphereAction",
            "samplers" : [
                {
                    "input" : 8,
                    "interpolation" : "LINEAR",
                    "output" : 9
                },
                {
                    "input" : 10,
                    "interpolation" : "LINEAR",
                    "output" : 11
                },
                {
                    "input" : 8,
                    "interpolation" : "LINEAR",
                    "output" : 12
                }
            ]
        }
    ],
    "materials" : [
        {
            "doubleSided" : false,
            "name" : "Ground",
            "pbrMetallicRoughness" : {
                "baseColorFactor" : [
                    0.000788496749009937,
                    0.0011675165733322501,
                    0.0034772944636642933,
                    1
                ],
                "metallicFactor" : 0,
                "roughnessFactor" : 0.4000000059604645
            }
        },
        {
            "doubleSided" : false,
            "name" : "Material.001",
            "pbrMetallicRoughness" : {
                "baseColorFactor" : [
                    0.800000011920929,
                    0.800000011920929,
                    0.800000011920929,
                    1
                ],
                "metallicFactor" : 0,
                "roughnessFactor" : 0.5
            }
        }
    ],
    "meshes" : [
        {
            "name" : "Plane.001",
            "primitives" : [
                {
                    "attributes" : {
                        "POSITION" : 0,
                        "NORMAL" : 1,
                        "TEXCOORD_0" : 2
                    },
                    "indices" : 3,
                    "material" : 0
                }
            ]
        },
        {
            "name" : "Sphere",
            "primitives" : [
                {
                    "attributes" : {
                        "POSITION" : 4,
                        "NORMAL" : 5,
                        "TEXCOORD_0" : 6
                    },
                    "indices" : 7,
                    "material" : 1
                }
            ]
        }
    ],
    "accessors" : [
        {
            "bufferView" : 0,
            "componentType" : 5126,
            "count" : 171,
            "max" : [
                150,
                0,
                150
            ],
            "min" : [
                -150,
                -185.495361328125,
                -150
            ],
            "type" : "VEC3"
        },
        {
            "bufferView" : 1,
            "componentType" : 5126,
            "count" : 171,
            "type" : "VEC3"
        },
        {
            "bufferView" : 2,
            "componentType" : 5126,
            "count" : 171,
            "type" : "VEC2"
        },
        {
            "bufferView" : 3,
            "componentType" : 5123,
            "count" : 882,
            "type" : "SCALAR"
        },
        {
            "bufferView" : 4,
            "componentType" : 5126,
            "count" : 823,
            "max" : [
                0.9999997019767761,
                1,
                0.9999994039535522
            ],
            "min" : [
                -0.9999990463256836,
                -1,
                -1
            ],
            "type" : "VEC3"
        },
        {
            "bufferView" : 5,
            "componentType" : 5126,
            "count" : 823,
            "type" : "VEC3"
        },
        {
            "bufferView" : 6,
            "componentType" : 5126,
            "count" : 823,
            "type" : "VEC2"
        },
        {
            "bufferView" : 7,
            "componentType" : 5123,
            "count" : 4416,
            "type" : "SCALAR"
        },
        {
            "bufferView" : 8,
            "componentType" : 5126,
            "count" : 24,
            "max" : [
                0.8666666666666667
            ],
            "min" : [
                0.1
            ],
            "type" : "SCALAR"
        },
        {
            "bufferView" : 9,
            "componentType" : 5126,
            "count" : 24,
            "type" : "VEC3"
        },
        {
            "bufferView" : 10,
            "componentType" : 5126,
            "count" : 2,
            "max" : [
                0.8666666666666667
            ],
            "min" : [
                0.1
            ],
            "type" : "SCALAR"
        },
        {
            "bufferView" : 11,
            "componentType" : 5126,
            "count" : 2,
            "type" : "VEC4"
        },
        {
            "bufferView" : 12,
            "componentType" : 5126,
            "count" : 24,
            "type" : "VEC3"
        }
    ],
    "bufferViews" : [
        {
            "buffer" : 0,
            "byteLength" : 2052,
            "byteOffset" : 0
        },
        {
            "buffer" : 0,
            "byteLength" : 2052,
            "byteOffset" : 2052
        },
        {
            "buffer" : 0,
            "byteLength" : 1368,
            "byteOffset" : 4104
        },
        {
            "buffer" : 0,
            "byteLength" : 1764,
            "byteOffset" : 5472
        },
        {
            "buffer" : 0,
            "byteLength" : 9876,
            "byteOffset" : 7236
        },
        {
            "buffer" : 0,
            "byteLength" : 9876,
            "byteOffset" : 17112
        },
        {
            "buffer" : 0,
            "byteLength" : 6584,
            "byteOffset" : 26988
        },
        {
            "buffer" : 0,
            "byteLength" : 8832,
            "byteOffset" : 33572
        },
        {
            "buffer" : 0,
            "byteLength" : 96,
            "byteOffset" : 42404
        },
        {
            "buffer" : 0,
            "byteLength" : 288,
            "byteOffset" : 42500
        },
        {
            "buffer" : 0,
            "byteLength" : 8,
            "byteOffset" : 42788
        },
        {
            "buffer" : 0,
            "byteLength" : 32,
            "byteOffset" : 42796
        },
        {
            "buffer" : 0,
            "byteLength" : 288,
            "byteOffset" : 42828
        }
    ],
    "buffers" : [
        {
            "byteLength" : 43116,
            "uri" : "data:application/octet-stream;base64,"
        }
    ]
}
