{
    "asset" : {
        "generator" : "Khronos glTF Blender I/O v1.7.33",
        "version" : "2.0"
    },
    "scene" : 0,
    "scenes" : [
        {
            "name" : "Scene",
            "nodes" : [
                4
            ]
        }
    ],
    "nodes" : [
        {
            "mesh" : 0,
            "name" : "Curve.009",
            "rotation" : [
                0.6903455853462219,
                0.15304593741893768,
                -0.15304595232009888,
                0.6903455257415771
            ],
            "scale" : [
                30.760339736938477,
                30.760339736938477,
                30.760339736938477
            ],
            "translation" : [
                -0.6870255470275879,
                0.003658723086118698,
                -0.15139371156692505
            ]
        },
        {
            "mesh" : 1,
            "name" : "Curve.007",
            "translation" : [
                0,
                -0.00046668946743011475,
                0
            ]
        },
        {
            "children" : [
                1
            ],
            "mesh" : 2,
            "name" : "Curve.008",
            "rotation" : [
                0,
                0.616262674331665,
                0,
                0.7875406742095947
            ],
            "scale" : [
                0.9321861863136292,
                0.9321860671043396,
                0.9321861863136292
            ],
            "translation" : [
                0.0013975650072097778,
                0.000342243118211627,
                0.004125334322452545
            ]
        },
        {
            "children" : [
                2
            ],
            "mesh" : 3,
            "name" : "Curve.012",
            "scale" : [
                62.49689483642578,
                62.49689483642578,
                62.49689483642578
            ],
            "translation" : [
                -0.01722899079322815,
                0.17761555314064026,
                0.48063337802886963
            ]
        },
        {
            "children" : [
                0,
                3
            ],
            "mesh" : 4,
            "name" : "Cylinder.006",
            "scale" : [
                1.3639041185379028,
                1.3639041185379028,
                1.3639041185379028
            ],
            "translation" : [
                0.6228127479553223,
                0.06543223559856415,
                -0.6555378437042236
            ]
        }
    ],
    "animations" : [
        {
            "channels" : [
                {
                    "sampler" : 0,
                    "target" : {
                        "node" : 2,
                        "path" : "translation"
                    }
                },
                {
                    "sampler" : 1,
                    "target" : {
                        "node" : 2,
                        "path" : "rotation"
                    }
                },
                {
                    "sampler" : 2,
                    "target" : {
                        "node" : 2,
                        "path" : "scale"
                    }
                }
            ],
            "name" : "Curve.008Action",
            "samplers" : [
                {
                    "input" : 24,
                    "interpolation" : "LINEAR",
                    "output" : 25
                },
                {
                    "input" : 24,
                    "interpolation" : "LINEAR",
                    "output" : 26
                },
                {
                    "input" : 27,
                    "interpolation" : "LINEAR",
                    "output" : 28
                }
            ]
        },
        {
            "channels" : [
                {
                    "sampler" : 0,
                    "target" : {
                        "node" : 3,
                        "path" : "translation"
                    }
                },
                {
                    "sampler" : 1,
                    "target" : {
                        "node" : 3,
                        "path" : "rotation"
                    }
                },
                {
                    "sampler" : 2,
                    "target" : {
                        "node" : 3,
                        "path" : "scale"
                    }
                }
            ],
            "name" : "Curve.012Action",
            "samplers" : [
                {
                    "input" : 24,
                    "interpolation" : "LINEAR",
                    "output" : 29
                },
                {
                    "input" : 24,
                    "interpolation" : "LINEAR",
                    "output" : 30
                },
                {
                    "input" : 27,
                    "interpolation" : "LINEAR",
                    "output" : 31
                }
            ]
        }
    ],
    "materials" : [
        {
            "doubleSided" : false,
            "name" : "Nyftis.001",
            "pbrMetallicRoughness" : {
                "baseColorFactor" : [
                    0.006031408440321684,
                    0.006422857753932476,
                    0.10091518610715866,
                    1
                ],
                "metallicFactor" : 0,
                "roughnessFactor" : 0.699999988079071
            }
        },
        {
            "doubleSided" : false,
            "name" : "Material.038",
            "pbrMetallicRoughness" : {
                "baseColorFactor" : [
                    0.09,
                    0.09,
                    0,
                    1
                ],
                "metallicFactor" : 0,
                "roughnessFactor" : 0
            }
        },
        {
            "doubleSided" : false,
            "name" : "SVGMat.003",
            "pbrMetallicRoughness" : {
                "baseColorFactor" : [
                    1,
                    0.9386857151985168,
                    0.7529422044754028,
                    1
                ],
                "metallicFactor" : 0,
                "roughnessFactor" : 0.4000000059604645
            }
        },
        {
            "doubleSided" : false,
            "name" : "SVGMat.002",
            "pbrMetallicRoughness" : {
                "baseColorFactor" : [
                    1,
                    0.9386857151985168,
                    0.7529422044754028,
                    1
                ],
                "metallicFactor" : 0,
                "roughnessFactor" : 0.4000000059604645
            }
        },
        {
            "doubleSided" : false,
            "name" : "Material.037",
            "pbrMetallicRoughness" : {
                "baseColorFactor" : [
                    0.025476321578025818,
                    0.031014028936624527,
                    0.33977600932121277,
                    1
                ],
                "metallicFactor" : 0,
                "roughnessFactor" : 0.5
            }
        },
        {
            "doubleSided" : false,
            "name" : "Base_01.009",
            "pbrMetallicRoughness" : {
                "baseColorFactor" : [
                    0.07731335610151291,
                    0.03786727413535118,
                    0.18024708330631256,
                    1
                ],
                "metallicFactor" : 0,
                "roughnessFactor" : 0.699999988079071
            }
        }
    ],
    "meshes" : [
        {
            "name" : "Curve.036",
            "primitives" : [
                {
                    "attributes" : {
                        "POSITION" : 0,
                        "NORMAL" : 1,
                        "TEXCOORD_0" : 2
                    },
                    "indices" : 3,
                    "material" : 0
                }
            ]
        },
        {
            "name" : "Curve.079",
            "primitives" : [
                {
                    "attributes" : {
                        "POSITION" : 4,
                        "NORMAL" : 5,
                        "TEXCOORD_0" : 6
                    },
                    "indices" : 7,
                    "material" : 1
                }
            ]
        },
        {
            "name" : "Curve.080",
            "primitives" : [
                {
                    "attributes" : {
                        "POSITION" : 8,
                        "NORMAL" : 9,
                        "TEXCOORD_0" : 10
                    },
                    "indices" : 11,
                    "material" : 2
                },
                {
                    "attributes" : {
                        "POSITION" : 12,
                        "NORMAL" : 13,
                        "TEXCOORD_0" : 14
                    },
                    "indices" : 15,
                    "material" : 3
                }
            ]
        },
        {
            "name" : "Curve.082",
            "primitives" : [
                {
                    "attributes" : {
                        "POSITION" : 16,
                        "NORMAL" : 17,
                        "TEXCOORD_0" : 18
                    },
                    "indices" : 19,
                    "material" : 4
                }
            ]
        },
        {
            "name" : "Cylinder.009",
            "primitives" : [
                {
                    "attributes" : {
                        "POSITION" : 20,
                        "NORMAL" : 21,
                        "TEXCOORD_0" : 22
                    },
                    "indices" : 23,
                    "material" : 5
                }
            ]
        }
    ],
    "accessors" : [
        {
            "bufferView" : 0,
            "componentType" : 5126,
            "count" : 4309,
            "max" : [
                0.037725694477558136,
                1.7200008084472529e-09,
                -0.003043725620955229
            ],
            "min" : [
                -3.725290298461914e-09,
                -0.003000000026077032,
                -0.01313922367990017
            ],
            "type" : "VEC3"
        },
        {
            "bufferView" : 1,
            "componentType" : 5126,
            "count" : 4309,
            "type" : "VEC3"
        },
        {
            "bufferView" : 2,
            "componentType" : 5126,
            "count" : 4309,
            "type" : "VEC2"
        },
        {
            "bufferView" : 3,
            "componentType" : 5123,
            "count" : 7224,
            "type" : "SCALAR"
        },
        {
            "bufferView" : 4,
            "componentType" : 5126,
            "count" : 365,
            "max" : [
                0.012418031692504883,
                0,
                -0.0011286735534667969
            ],
            "min" : [
                0.0011289119720458984,
                -0.001500000013038516,
                -0.012415409088134766
            ],
            "type" : "VEC3"
        },
        {
            "bufferView" : 5,
            "componentType" : 5126,
            "count" : 365,
            "type" : "VEC3"
        },
        {
            "bufferView" : 6,
            "componentType" : 5126,
            "count" : 365,
            "type" : "VEC2"
        },
        {
            "bufferView" : 7,
            "componentType" : 5123,
            "count" : 564,
            "type" : "SCALAR"
        },
        {
            "bufferView" : 8,
            "componentType" : 5126,
            "count" : 1437,
            "max" : [
                0.009313523769378662,
                0,
                -0.003950357437133789
            ],
            "min" : [
                0.004797875881195068,
                -0.0010000000474974513,
                -0.009593725204467773
            ],
            "type" : "VEC3"
        },
        {
            "bufferView" : 9,
            "componentType" : 5126,
            "count" : 1437,
            "type" : "VEC3"
        },
        {
            "bufferView" : 10,
            "componentType" : 5126,
            "count" : 1437,
            "type" : "VEC2"
        },
        {
            "bufferView" : 11,
            "componentType" : 5123,
            "count" : 2376,
            "type" : "SCALAR"
        },
        {
            "bufferView" : 12,
            "componentType" : 5126,
            "count" : 100,
            "max" : [
                0.007902383804321289,
                2.3283064365386963e-10,
                -0.0031038522720336914
            ],
            "min" : [
                0.005644559860229492,
                -0.0009999998146668077,
                -0.010440230369567871
            ],
            "type" : "VEC3"
        },
        {
            "bufferView" : 13,
            "componentType" : 5126,
            "count" : 100,
            "type" : "VEC3"
        },
        {
            "bufferView" : 14,
            "componentType" : 5126,
            "count" : 100,
            "type" : "VEC2"
        },
        {
            "bufferView" : 15,
            "componentType" : 5123,
            "count" : 144,
            "type" : "SCALAR"
        },
        {
            "bufferView" : 16,
            "componentType" : 5126,
            "count" : 68,
            "max" : [
                0.01100689172744751,
                0.0013788628857582808,
                -0.0005643367767333984
            ],
            "min" : [
                0.0031045079231262207,
                -0.0009768364252522588,
                -0.012979745864868164
            ],
            "type" : "VEC3"
        },
        {
            "bufferView" : 17,
            "componentType" : 5126,
            "count" : 68,
            "type" : "VEC3"
        },
        {
            "bufferView" : 18,
            "componentType" : 5126,
            "count" : 68,
            "type" : "VEC2"
        },
        {
            "bufferView" : 19,
            "componentType" : 5123,
            "count" : 84,
            "type" : "SCALAR"
        },
        {
            "bufferView" : 20,
            "componentType" : 5126,
            "count" : 4028,
            "max" : [
                0.9967329502105713,
                0.11267028003931046,
                0.9967329502105713
            ],
            "min" : [
                -0.9967329502105713,
                -0.05000002309679985,
                -0.9967329502105713
            ],
            "type" : "VEC3"
        },
        {
            "bufferView" : 21,
            "componentType" : 5126,
            "count" : 4028,
            "type" : "VEC3"
        },
        {
            "bufferView" : 22,
            "componentType" : 5126,
            "count" : 4028,
            "type" : "VEC2"
        },
        {
            "bufferView" : 23,
            "componentType" : 5123,
            "count" : 17280,
            "type" : "SCALAR"
        },
        {
            "bufferView" : 24,
            "componentType" : 5126,
            "count" : 28,
            "max" : [
                24.766666666666666
            ],
            "min" : [
                23.866666666666667
            ],
            "type" : "SCALAR"
        },
        {
            "bufferView" : 25,
            "componentType" : 5126,
            "count" : 28,
            "type" : "VEC3"
        },
        {
            "bufferView" : 26,
            "componentType" : 5126,
            "count" : 28,
            "type" : "VEC4"
        },
        {
            "bufferView" : 27,
            "componentType" : 5126,
            "count" : 2,
            "max" : [
                24.766666666666666
            ],
            "min" : [
                23.866666666666667
            ],
            "type" : "SCALAR"
        },
        {
            "bufferView" : 28,
            "componentType" : 5126,
            "count" : 2,
            "type" : "VEC3"
        },
        {
            "bufferView" : 29,
            "componentType" : 5126,
            "count" : 28,
            "type" : "VEC3"
        },
        {
            "bufferView" : 30,
            "componentType" : 5126,
            "count" : 28,
            "type" : "VEC4"
        },
        {
            "bufferView" : 31,
            "componentType" : 5126,
            "count" : 2,
            "type" : "VEC3"
        }
    ],
    "bufferViews" : [
        {
            "buffer" : 0,
            "byteLength" : 51708,
            "byteOffset" : 0
        },
        {
            "buffer" : 0,
            "byteLength" : 51708,
            "byteOffset" : 51708
        },
        {
            "buffer" : 0,
            "byteLength" : 34472,
            "byteOffset" : 103416
        },
        {
            "buffer" : 0,
            "byteLength" : 14448,
            "byteOffset" : 137888
        },
        {
            "buffer" : 0,
            "byteLength" : 4380,
            "byteOffset" : 152336
        },
        {
            "buffer" : 0,
            "byteLength" : 4380,
            "byteOffset" : 156716
        },
        {
            "buffer" : 0,
            "byteLength" : 2920,
            "byteOffset" : 161096
        },
        {
            "buffer" : 0,
            "byteLength" : 1128,
            "byteOffset" : 164016
        },
        {
            "buffer" : 0,
            "byteLength" : 17244,
            "byteOffset" : 165144
        },
        {
            "buffer" : 0,
            "byteLength" : 17244,
            "byteOffset" : 182388
        },
        {
            "buffer" : 0,
            "byteLength" : 11496,
            "byteOffset" : 199632
        },
        {
            "buffer" : 0,
            "byteLength" : 4752,
            "byteOffset" : 211128
        },
        {
            "buffer" : 0,
            "byteLength" : 1200,
            "byteOffset" : 215880
        },
        {
            "buffer" : 0,
            "byteLength" : 1200,
            "byteOffset" : 217080
        },
        {
            "buffer" : 0,
            "byteLength" : 800,
            "byteOffset" : 218280
        },
        {
            "buffer" : 0,
            "byteLength" : 288,
            "byteOffset" : 219080
        },
        {
            "buffer" : 0,
            "byteLength" : 816,
            "byteOffset" : 219368
        },
        {
            "buffer" : 0,
            "byteLength" : 816,
            "byteOffset" : 220184
        },
        {
            "buffer" : 0,
            "byteLength" : 544,
            "byteOffset" : 221000
        },
        {
            "buffer" : 0,
            "byteLength" : 168,
            "byteOffset" : 221544
        },
        {
            "buffer" : 0,
            "byteLength" : 48336,
            "byteOffset" : 221712
        },
        {
            "buffer" : 0,
            "byteLength" : 48336,
            "byteOffset" : 270048
        },
        {
            "buffer" : 0,
            "byteLength" : 32224,
            "byteOffset" : 318384
        },
        {
            "buffer" : 0,
            "byteLength" : 34560,
            "byteOffset" : 350608
        },
        {
            "buffer" : 0,
            "byteLength" : 112,
            "byteOffset" : 385168
        },
        {
            "buffer" : 0,
            "byteLength" : 336,
            "byteOffset" : 385280
        },
        {
            "buffer" : 0,
            "byteLength" : 448,
            "byteOffset" : 385616
        },
        {
            "buffer" : 0,
            "byteLength" : 8,
            "byteOffset" : 386064
        },
        {
            "buffer" : 0,
            "byteLength" : 24,
            "byteOffset" : 386072
        },
        {
            "buffer" : 0,
            "byteLength" : 336,
            "byteOffset" : 386096
        },
        {
            "buffer" : 0,
            "byteLength" : 448,
            "byteOffset" : 386432
        },
        {
            "buffer" : 0,
            "byteLength" : 24,
            "byteOffset" : 386880
        }
    ],
    "buffers" : [
        {
            "byteLength" : 386904,
            "uri" : "data:application/octet-stream;base64,"
        }
    ]
}
