{
    "asset" : {
        "generator" : "Khronos glTF Blender I/O v1.7.33",
        "version" : "2.0"
    },
    "scene" : 0,
    "scenes" : [
        {
            "name" : "Scene",
            "nodes" : [
                3
            ]
        }
    ],
    "nodes" : [
        {
            "mesh" : 0,
            "name" : "Curve.003",
            "rotation" : [
                0.6903455257415771,
                0.15304593741893768,
                -0.15304593741893768,
                0.6903455257415771
            ],
            "scale" : [
                24.298301696777344,
                24.298301696777344,
                24.298301696777344
            ],
            "translation" : [
                -0.7839970588684082,
                0.05585738271474838,
                -0.0465998649597168
            ]
        },
        {
            "mesh" : 1,
            "name" : "Curve.018",
            "rotation" : [
                0,
                0.41213005781173706,
                0,
                0.9111250638961792
            ],
            "scale" : [
                73.63226318359375,
                73.63226318359375,
                73.63226318359375
            ],
            "translation" : [
                -0.1245269775390625,
                0.1695583462715149,
                0.707794189453125
            ]
        },
        {
            "mesh" : 2,
            "name" : "Curve.019",
            "rotation" : [
                0.19520434737205505,
                0.7963675856590271,
                -0.06047450378537178,
                0.5692423582077026
            ],
            "scale" : [
                73.75639343261719,
                73.75638580322266,
                73.75638580322266
            ],
            "translation" : [
                1.0396876335144043,
                0.049726665019989014,
                0.47893190383911133
            ]
        },
        {
            "children" : [
                0,
                1,
                2
            ],
            "mesh" : 3,
            "name" : "Cylinder.004",
            "scale" : [
                1.3639041185379028,
                1.3639041185379028,
                1.3639041185379028
            ],
            "translation" : [
                0.6072063446044922,
                0.06543223559856415,
                -0.7533373832702637
            ]
        }
    ],
    "animations" : [
        {
            "channels" : [
                {
                    "sampler" : 0,
                    "target" : {
                        "node" : 2,
                        "path" : "translation"
                    }
                },
                {
                    "sampler" : 1,
                    "target" : {
                        "node" : 2,
                        "path" : "rotation"
                    }
                },
                {
                    "sampler" : 2,
                    "target" : {
                        "node" : 2,
                        "path" : "scale"
                    }
                }
            ],
            "name" : "dashAnimation",
            "samplers" : [
                {
                    "input" : 16,
                    "interpolation" : "LINEAR",
                    "output" : 17
                },
                {
                    "input" : 16,
                    "interpolation" : "LINEAR",
                    "output" : 18
                },
                {
                    "input" : 19,
                    "interpolation" : "LINEAR",
                    "output" : 20
                }
            ]
        },
        {
            "channels" : [
                {
                    "sampler" : 0,
                    "target" : {
                        "node" : 1,
                        "path" : "translation"
                    }
                },
                {
                    "sampler" : 1,
                    "target" : {
                        "node" : 1,
                        "path" : "rotation"
                    }
                },
                {
                    "sampler" : 2,
                    "target" : {
                        "node" : 1,
                        "path" : "scale"
                    }
                }
            ],
            "name" : "cartAnimation",
            "samplers" : [
                {
                    "input" : 16,
                    "interpolation" : "LINEAR",
                    "output" : 21
                },
                {
                    "input" : 16,
                    "interpolation" : "LINEAR",
                    "output" : 22
                },
                {
                    "input" : 19,
                    "interpolation" : "LINEAR",
                    "output" : 23
                }
            ]
        },
        {
            "channels" : [
                {
                    "sampler" : 0,
                    "target" : {
                        "node" : 3,
                        "path" : "translation"
                    }
                },
                {
                    "sampler" : 1,
                    "target" : {
                        "node" : 3,
                        "path" : "rotation"
                    }
                }
            ],
            "name" : "baseAnimation",
            "samplers" : [
                {
                    "input" : 24,
                    "interpolation" : "LINEAR",
                    "output" : 25
                },
                {
                    "input" : 26,
                    "interpolation" : "LINEAR",
                    "output" : 27
                }
            ]
        }
    ],
    "materials" : [
        {
            "doubleSided" : false,
            "name" : "Shopping.io",
            "pbrMetallicRoughness" : {
                "baseColorFactor" : [
                    0.10090931504964828,
                    0.007431628182530403,
                    0.07385081797838211,
                    1
                ],
                "metallicFactor" : 0,
                "roughnessFactor" : 0.699999988079071
            }
        },
        {
            "doubleSided" : false,
            "name" : "Material.022",
            "pbrMetallicRoughness" : {
                "baseColorFactor" : [
                    0.5271154046058655,
                    0.13286827504634857,
                    0.14702731370925903,
                    1
                ],
                "metallicFactor" : 0,
                "roughnessFactor" : 0.5
            }
        },
        {
            "doubleSided" : false,
            "name" : "Material.021",
            "pbrMetallicRoughness" : {
                "baseColorFactor" : [
                    0.7758227586746216,
                    0.6583748459815979,
                    0.24228119850158691,
                    1
                ],
                "metallicFactor" : 0,
                "roughnessFactor" : 0.5
            }
        },
        {
            "doubleSided" : false,
            "name" : "Base_01.004",
            "pbrMetallicRoughness" : {
                "baseColorFactor" : [
                    0.18025057017803192,
                    0.0874558687210083,
                    0.14073456823825836,
                    1
                ],
                "metallicFactor" : 0,
                "roughnessFactor" : 0.699999988079071
            }
        }
    ],
    "meshes" : [
        {
            "name" : "Curve.001",
            "primitives" : [
                {
                    "attributes" : {
                        "POSITION" : 0,
                        "NORMAL" : 1,
                        "TEXCOORD_0" : 2
                    },
                    "indices" : 3,
                    "material" : 0
                }
            ]
        },
        {
            "name" : "Curve.093",
            "primitives" : [
                {
                    "attributes" : {
                        "POSITION" : 4,
                        "NORMAL" : 5,
                        "TEXCOORD_0" : 6
                    },
                    "indices" : 7,
                    "material" : 1
                }
            ]
        },
        {
            "name" : "Curve.094",
            "primitives" : [
                {
                    "attributes" : {
                        "POSITION" : 8,
                        "NORMAL" : 9,
                        "TEXCOORD_0" : 10
                    },
                    "indices" : 11,
                    "material" : 2
                }
            ]
        },
        {
            "name" : "Cylinder.005",
            "primitives" : [
                {
                    "attributes" : {
                        "POSITION" : 12,
                        "NORMAL" : 13,
                        "TEXCOORD_0" : 14
                    },
                    "indices" : 15,
                    "material" : 3
                }
            ]
        }
    ],
    "accessors" : [
        {
            "bufferView" : 0,
            "componentType" : 5126,
            "count" : 13133,
            "max" : [
                0.054096050560474396,
                0,
                -0.001984125003218651
            ],
            "min" : [
                2.2882240955368616e-06,
                -0.003000000026077032,
                -0.010597004555165768
            ],
            "type" : "VEC3"
        },
        {
            "bufferView" : 1,
            "componentType" : 5126,
            "count" : 13133,
            "type" : "VEC3"
        },
        {
            "bufferView" : 2,
            "componentType" : 5126,
            "count" : 13133,
            "type" : "VEC2"
        },
        {
            "bufferView" : 3,
            "componentType" : 5123,
            "count" : 21795,
            "type" : "SCALAR"
        },
        {
            "bufferView" : 4,
            "componentType" : 5126,
            "count" : 3013,
            "max" : [
                0.007902421988546848,
                0,
                -0.0008465051651000977
            ],
            "min" : [
                0.0002782084047794342,
                -0.0010000000474974513,
                -0.007900714874267578
            ],
            "type" : "VEC3"
        },
        {
            "bufferView" : 5,
            "componentType" : 5126,
            "count" : 3013,
            "type" : "VEC3"
        },
        {
            "bufferView" : 6,
            "componentType" : 5126,
            "count" : 3013,
            "type" : "VEC2"
        },
        {
            "bufferView" : 7,
            "componentType" : 5123,
            "count" : 4896,
            "type" : "SCALAR"
        },
        {
            "bufferView" : 8,
            "componentType" : 5126,
            "count" : 3092,
            "max" : [
                0.0076201558113098145,
                0,
                -0.0008465051651000977
            ],
            "min" : [
                0.0008466839790344238,
                -0.0010000000474974513,
                -0.007618546485900879
            ],
            "type" : "VEC3"
        },
        {
            "bufferView" : 9,
            "componentType" : 5126,
            "count" : 3092,
            "type" : "VEC3"
        },
        {
            "bufferView" : 10,
            "componentType" : 5126,
            "count" : 3092,
            "type" : "VEC2"
        },
        {
            "bufferView" : 11,
            "componentType" : 5123,
            "count" : 4824,
            "type" : "SCALAR"
        },
        {
            "bufferView" : 12,
            "componentType" : 5126,
            "count" : 4028,
            "max" : [
                0.9967329502105713,
                0.11267028003931046,
                0.9967329502105713
            ],
            "min" : [
                -0.9967329502105713,
                -0.05000002309679985,
                -0.9967329502105713
            ],
            "type" : "VEC3"
        },
        {
            "bufferView" : 13,
            "componentType" : 5126,
            "count" : 4028,
            "type" : "VEC3"
        },
        {
            "bufferView" : 14,
            "componentType" : 5126,
            "count" : 4028,
            "type" : "VEC2"
        },
        {
            "bufferView" : 15,
            "componentType" : 5123,
            "count" : 17280,
            "type" : "SCALAR"
        },
        {
            "bufferView" : 16,
            "componentType" : 5126,
            "count" : 6,
            "max" : [
                0.2
            ],
            "min" : [
                0.03333333333333333
            ],
            "type" : "SCALAR"
        },
        {
            "bufferView" : 17,
            "componentType" : 5126,
            "count" : 6,
            "type" : "VEC3"
        },
        {
            "bufferView" : 18,
            "componentType" : 5126,
            "count" : 6,
            "type" : "VEC4"
        },
        {
            "bufferView" : 19,
            "componentType" : 5126,
            "count" : 2,
            "max" : [
                0.2
            ],
            "min" : [
                0.03333333333333333
            ],
            "type" : "SCALAR"
        },
        {
            "bufferView" : 20,
            "componentType" : 5126,
            "count" : 2,
            "type" : "VEC3"
        },
        {
            "bufferView" : 21,
            "componentType" : 5126,
            "count" : 6,
            "type" : "VEC3"
        },
        {
            "bufferView" : 22,
            "componentType" : 5126,
            "count" : 6,
            "type" : "VEC4"
        },
        {
            "bufferView" : 23,
            "componentType" : 5126,
            "count" : 2,
            "type" : "VEC3"
        },
        {
            "bufferView" : 24,
            "componentType" : 5126,
            "count" : 224,
            "max" : [
                7.466666666666667
            ],
            "min" : [
                0.03333333333333333
            ],
            "type" : "SCALAR"
        },
        {
            "bufferView" : 25,
            "componentType" : 5126,
            "count" : 224,
            "type" : "VEC3"
        },
        {
            "bufferView" : 26,
            "componentType" : 5126,
            "count" : 2,
            "max" : [
                7.466666666666667
            ],
            "min" : [
                0.03333333333333333
            ],
            "type" : "SCALAR"
        },
        {
            "bufferView" : 27,
            "componentType" : 5126,
            "count" : 2,
            "type" : "VEC4"
        }
    ],
    "bufferViews" : [
        {
            "buffer" : 0,
            "byteLength" : 157596,
            "byteOffset" : 0
        },
        {
            "buffer" : 0,
            "byteLength" : 157596,
            "byteOffset" : 157596
        },
        {
            "buffer" : 0,
            "byteLength" : 105064,
            "byteOffset" : 315192
        },
        {
            "buffer" : 0,
            "byteLength" : 43590,
            "byteOffset" : 420256
        },
        {
            "buffer" : 0,
            "byteLength" : 36156,
            "byteOffset" : 463848
        },
        {
            "buffer" : 0,
            "byteLength" : 36156,
            "byteOffset" : 500004
        },
        {
            "buffer" : 0,
            "byteLength" : 24104,
            "byteOffset" : 536160
        },
        {
            "buffer" : 0,
            "byteLength" : 9792,
            "byteOffset" : 560264
        },
        {
            "buffer" : 0,
            "byteLength" : 37104,
            "byteOffset" : 570056
        },
        {
            "buffer" : 0,
            "byteLength" : 37104,
            "byteOffset" : 607160
        },
        {
            "buffer" : 0,
            "byteLength" : 24736,
            "byteOffset" : 644264
        },
        {
            "buffer" : 0,
            "byteLength" : 9648,
            "byteOffset" : 669000
        },
        {
            "buffer" : 0,
            "byteLength" : 48336,
            "byteOffset" : 678648
        },
        {
            "buffer" : 0,
            "byteLength" : 48336,
            "byteOffset" : 726984
        },
        {
            "buffer" : 0,
            "byteLength" : 32224,
            "byteOffset" : 775320
        },
        {
            "buffer" : 0,
            "byteLength" : 34560,
            "byteOffset" : 807544
        },
        {
            "buffer" : 0,
            "byteLength" : 24,
            "byteOffset" : 842104
        },
        {
            "buffer" : 0,
            "byteLength" : 72,
            "byteOffset" : 842128
        },
        {
            "buffer" : 0,
            "byteLength" : 96,
            "byteOffset" : 842200
        },
        {
            "buffer" : 0,
            "byteLength" : 8,
            "byteOffset" : 842296
        },
        {
            "buffer" : 0,
            "byteLength" : 24,
            "byteOffset" : 842304
        },
        {
            "buffer" : 0,
            "byteLength" : 72,
            "byteOffset" : 842328
        },
        {
            "buffer" : 0,
            "byteLength" : 96,
            "byteOffset" : 842400
        },
        {
            "buffer" : 0,
            "byteLength" : 24,
            "byteOffset" : 842496
        },
        {
            "buffer" : 0,
            "byteLength" : 896,
            "byteOffset" : 842520
        },
        {
            "buffer" : 0,
            "byteLength" : 2688,
            "byteOffset" : 843416
        },
        {
            "buffer" : 0,
            "byteLength" : 8,
            "byteOffset" : 846104
        },
        {
            "buffer" : 0,
            "byteLength" : 32,
            "byteOffset" : 846112
        }
    ],
    "buffers" : [
        {
            "byteLength" : 846144,
            "uri" : "data:application/octet-stream;base64,"
        }
    ]
}
