{
    "asset" : {
        "generator" : "Khronos glTF Blender I/O v1.7.33",
        "version" : "2.0"
    },
    "scene" : 0,
    "scenes" : [
        {
            "name" : "Scene",
            "nodes" : [
                3
            ]
        }
    ],
    "nodes" : [
        {
            "mesh" : 0,
            "name" : "Cube",
            "rotation" : [
                0.0002855872444342822,
                -0.7658980488777161,
                -0.00023977553064469248,
                0.6429619789123535
            ],
            "scale" : [
                0.14681938290596008,
                0.03269854933023453,
                0.3078896999359131
            ],
            "translation" : [
                -0.38712435960769653,
                0.12676861882209778,
                0.2174028754234314
            ]
        },
        {
            "mesh" : 1,
            "name" : "Curve.004",
            "rotation" : [
                0.6903455257415771,
                0.15304593741893768,
                -0.15304593741893768,
                0.6903455257415771
            ],
            "scale" : [
                24.298301696777344,
                24.298301696777344,
                24.298301696777344
            ],
            "translation" : [
                -0.7811157703399658,
                0.07593412399292,
                -0.09135395288467407
            ]
        },
        {
            "mesh" : 2,
            "name" : "Cylinder.012",
            "rotation" : [
                0.1745869517326355,
                0.9739500284194946,
                0.025533044710755348,
                0.14243857562541962
            ],
            "scale" : [
                -0.12225928157567978,
                -0.013874402269721031,
                -0.12225927412509918
            ],
            "translation" : [
                0.800171971321106,
                0.10739246755838394,
                0.28807586431503296
            ]
        },
        {
            "children" : [
                0,
                1,
                2
            ],
            "mesh" : 3,
            "name" : "Cylinder.005",
            "scale" : [
                1.3639041185379028,
                1.3639041185379028,
                1.3639041185379028
            ],
            "translation" : [
                0.6072063446044922,
                0.06543223559856415,
                -0.7533373832702637
            ]
        }
    ],
    "animations" : [
        {
            "channels" : [
                {
                    "sampler" : 0,
                    "target" : {
                        "node" : 1,
                        "path" : "translation"
                    }
                },
                {
                    "sampler" : 1,
                    "target" : {
                        "node" : 1,
                        "path" : "rotation"
                    }
                },
                {
                    "sampler" : 2,
                    "target" : {
                        "node" : 1,
                        "path" : "scale"
                    }
                }
            ],
            "name" : "Curve.018Action",
            "samplers" : [
                {
                    "input" : 16,
                    "interpolation" : "LINEAR",
                    "output" : 17
                },
                {
                    "input" : 16,
                    "interpolation" : "LINEAR",
                    "output" : 18
                },
                {
                    "input" : 19,
                    "interpolation" : "LINEAR",
                    "output" : 20
                }
            ]
        },
        {
            "channels" : [
                {
                    "sampler" : 0,
                    "target" : {
                        "node" : 2,
                        "path" : "translation"
                    }
                },
                {
                    "sampler" : 1,
                    "target" : {
                        "node" : 2,
                        "path" : "rotation"
                    }
                },
                {
                    "sampler" : 2,
                    "target" : {
                        "node" : 2,
                        "path" : "scale"
                    }
                }
            ],
            "name" : "Curve.019Action",
            "samplers" : [
                {
                    "input" : 16,
                    "interpolation" : "LINEAR",
                    "output" : 21
                },
                {
                    "input" : 16,
                    "interpolation" : "LINEAR",
                    "output" : 22
                },
                {
                    "input" : 19,
                    "interpolation" : "LINEAR",
                    "output" : 23
                }
            ]
        }
    ],
    "materials" : [
        {
            "doubleSided" : false,
            "name" : "cash1",
            "pbrMetallicRoughness" : {
                "baseColorFactor" : [
                    0.3915727138519287,
                    0.539479672908783,
                    0.19461789727210999,
                    1
                ],
                "metallicFactor" : 0,
                "roughnessFactor" : 0.5
            }
        },
        {
            "doubleSided" : false,
            "name" : "cash2",
            "pbrMetallicRoughness" : {
                "baseColorFactor" : [
                    0.2432834357023239,
                    0.33334261178970337,
                    0.12271454185247421,
                    1
                ],
                "metallicFactor" : 0,
                "roughnessFactor" : 0.5
            }
        },
        {
            "doubleSided" : false,
            "name" : "text",
            "pbrMetallicRoughness" : {
                "baseColorFactor" : [
                    0,
                    0.1,
                    0.1,
                    1
                ],
                "metallicFactor" : 1,
                "roughnessFactor" : 0.699999988079071
            }
        },
        {
            "doubleSided" : false,
            "name" : "coine3",
            "pbrMetallicRoughness" : {
                "baseColorFactor" : [
                    0.38642969727516174,
                    0.04702725410461426,
                    0.00013702098280191422,
                    1
                ],
                "metallicFactor" : 0,
                "roughnessFactor" : 0.699999988079071
            }
        },
        {
            "doubleSided" : false,
            "name" : "coine2",
            "pbrMetallicRoughness" : {
                "baseColorFactor" : [
                    0.38642969727516174,
                    0.14702725410461426,
                    0.013702098280191422,
                    1
                ],
                "metallicFactor" : 0,
                "roughnessFactor" : 0.30000001192092896
            }
        },
        {
            "doubleSided" : false,
            "name" : "coine1",
            "pbrMetallicRoughness" : {
                "baseColorFactor" : [
                    0.21748821437358856,
                    0.08500175178050995,
                    0.00901423767209053,
                    1
                ],
                "metallicFactor" : 0,
                "roughnessFactor" : 0.30000001192092896
            }
        },
        {
            "doubleSided" : false,
            "name" : "Base",
            "pbrMetallicRoughness" : {
                "baseColorFactor" : [
                    0,
                    0.07,
                    0.11,
                    1
                ],
                "metallicFactor" : 0,
                "roughnessFactor" : 0.699999988079071
            }
        }
    ],
    "meshes" : [
        {
            "name" : "Curve.001",
            "primitives" : [
                {
                    "attributes" : {
                        "POSITION" : 0,
                        "NORMAL" : 1,
                        "TEXCOORD_0" : 2
                    },
                    "indices" : 3,
                    "material" : 0
                }
            ]
        },
        {
            "name" : "Curve.093",
            "primitives" : [
                {
                    "attributes" : {
                        "POSITION" : 4,
                        "NORMAL" : 5,
                        "TEXCOORD_0" : 6
                    },
                    "indices" : 7,
                    "material" : 1
                }
            ]
        },
        {
            "name" : "Curve.094",
            "primitives" : [
                {
                    "attributes" : {
                        "POSITION" : 8,
                        "NORMAL" : 9,
                        "TEXCOORD_0" : 10
                    },
                    "indices" : 11,
                    "material" : 2
                }
            ]
        },
        {
            "name" : "Cylinder.005",
            "primitives" : [
                {
                    "attributes" : {
                        "POSITION" : 12,
                        "NORMAL" : 13,
                        "TEXCOORD_0" : 14
                    },
                    "indices" : 15,
                    "material" : 3
                }
            ]
        }
    ],
    "accessors" : [
        {
            "bufferView" : 0,
            "componentType" : 5126,
            "count" : 13133,
            "max" : [
                0.054096050560474396,
                0,
                -0.001984125003218651
            ],
            "min" : [
                2.2882240955368616e-06,
                -0.003000000026077032,
                -0.010597004555165768
            ],
            "type" : "VEC3"
        },
        {
            "bufferView" : 1,
            "componentType" : 5126,
            "count" : 13133,
            "type" : "VEC3"
        },
        {
            "bufferView" : 2,
            "componentType" : 5126,
            "count" : 13133,
            "type" : "VEC2"
        },
        {
            "bufferView" : 3,
            "componentType" : 5123,
            "count" : 21795,
            "type" : "SCALAR"
        },
        {
            "bufferView" : 4,
            "componentType" : 5126,
            "count" : 3013,
            "max" : [
                0.007902421988546848,
                0,
                -0.0008465051651000977
            ],
            "min" : [
                0.0002782084047794342,
                -0.0010000000474974513,
                -0.007900714874267578
            ],
            "type" : "VEC3"
        },
        {
            "bufferView" : 5,
            "componentType" : 5126,
            "count" : 3013,
            "type" : "VEC3"
        },
        {
            "bufferView" : 6,
            "componentType" : 5126,
            "count" : 3013,
            "type" : "VEC2"
        },
        {
            "bufferView" : 7,
            "componentType" : 5123,
            "count" : 4896,
            "type" : "SCALAR"
        },
        {
            "bufferView" : 8,
            "componentType" : 5126,
            "count" : 3243,
            "max" : [
                0.0076201558113098145,
                0,
                -0.0008465051651000977
            ],
            "min" : [
                0.0008466839790344238,
                -0.0010000000474974513,
                -0.007618546485900879
            ],
            "type" : "VEC3"
        },
        {
            "bufferView" : 9,
            "componentType" : 5126,
            "count" : 3243,
            "type" : "VEC3"
        },
        {
            "bufferView" : 10,
            "componentType" : 5126,
            "count" : 3243,
            "type" : "VEC2"
        },
        {
            "bufferView" : 11,
            "componentType" : 5123,
            "count" : 4824,
            "type" : "SCALAR"
        },
        {
            "bufferView" : 12,
            "componentType" : 5126,
            "count" : 4028,
            "max" : [
                0.9967329502105713,
                0.11267028003931046,
                0.9967329502105713
            ],
            "min" : [
                -0.9967329502105713,
                -0.05000002309679985,
                -0.9967329502105713
            ],
            "type" : "VEC3"
        },
        {
            "bufferView" : 13,
            "componentType" : 5126,
            "count" : 4028,
            "type" : "VEC3"
        },
        {
            "bufferView" : 14,
            "componentType" : 5126,
            "count" : 4028,
            "type" : "VEC2"
        },
        {
            "bufferView" : 15,
            "componentType" : 5123,
            "count" : 17280,
            "type" : "SCALAR"
        },
        {
            "bufferView" : 16,
            "componentType" : 5126,
            "count" : 26,
            "max" : [
                51.166666666666664
            ],
            "min" : [
                50.125
            ],
            "type" : "SCALAR"
        },
        {
            "bufferView" : 17,
            "componentType" : 5126,
            "count" : 26,
            "type" : "VEC3"
        },
        {
            "bufferView" : 18,
            "componentType" : 5126,
            "count" : 26,
            "type" : "VEC4"
        },
        {
            "bufferView" : 19,
            "componentType" : 5126,
            "count" : 2,
            "max" : [
                51.166666666666664
            ],
            "min" : [
                50.125
            ],
            "type" : "SCALAR"
        },
        {
            "bufferView" : 20,
            "componentType" : 5126,
            "count" : 2,
            "type" : "VEC3"
        },
        {
            "bufferView" : 21,
            "componentType" : 5126,
            "count" : 26,
            "type" : "VEC3"
        },
        {
            "bufferView" : 22,
            "componentType" : 5126,
            "count" : 26,
            "type" : "VEC4"
        },
        {
            "bufferView" : 23,
            "componentType" : 5126,
            "count" : 2,
            "type" : "VEC3"
        }
    ],
    "bufferViews" : [
        {
            "buffer" : 0,
            "byteLength" : 157596,
            "byteOffset" : 0
        },
        {
            "buffer" : 0,
            "byteLength" : 157596,
            "byteOffset" : 157596
        },
        {
            "buffer" : 0,
            "byteLength" : 105064,
            "byteOffset" : 315192
        },
        {
            "buffer" : 0,
            "byteLength" : 43590,
            "byteOffset" : 420256
        },
        {
            "buffer" : 0,
            "byteLength" : 36156,
            "byteOffset" : 463848
        },
        {
            "buffer" : 0,
            "byteLength" : 36156,
            "byteOffset" : 500004
        },
        {
            "buffer" : 0,
            "byteLength" : 24104,
            "byteOffset" : 536160
        },
        {
            "buffer" : 0,
            "byteLength" : 9792,
            "byteOffset" : 560264
        },
        {
            "buffer" : 0,
            "byteLength" : 38916,
            "byteOffset" : 570056
        },
        {
            "buffer" : 0,
            "byteLength" : 38916,
            "byteOffset" : 608972
        },
        {
            "buffer" : 0,
            "byteLength" : 25944,
            "byteOffset" : 647888
        },
        {
            "buffer" : 0,
            "byteLength" : 9648,
            "byteOffset" : 673832
        },
        {
            "buffer" : 0,
            "byteLength" : 48336,
            "byteOffset" : 683480
        },
        {
            "buffer" : 0,
            "byteLength" : 48336,
            "byteOffset" : 731816
        },
        {
            "buffer" : 0,
            "byteLength" : 32224,
            "byteOffset" : 780152
        },
        {
            "buffer" : 0,
            "byteLength" : 34560,
            "byteOffset" : 812376
        },
        {
            "buffer" : 0,
            "byteLength" : 104,
            "byteOffset" : 846936
        },
        {
            "buffer" : 0,
            "byteLength" : 312,
            "byteOffset" : 847040
        },
        {
            "buffer" : 0,
            "byteLength" : 416,
            "byteOffset" : 847352
        },
        {
            "buffer" : 0,
            "byteLength" : 8,
            "byteOffset" : 847768
        },
        {
            "buffer" : 0,
            "byteLength" : 24,
            "byteOffset" : 847776
        },
        {
            "buffer" : 0,
            "byteLength" : 312,
            "byteOffset" : 847800
        },
        {
            "buffer" : 0,
            "byteLength" : 416,
            "byteOffset" : 848112
        },
        {
            "buffer" : 0,
            "byteLength" : 24,
            "byteOffset" : 848528
        }
    ],
    "buffers" : [
        {
            "byteLength" : 848552,
            "uri" : "data:application/octet-stream;base64,"
        }
    ]
}
