{
    "asset" : {
        "generator" : "Khronos glTF Blender I/O v1.7.33",
        "version" : "2.0"
    },
    "scene" : 0,
    "scenes" : [
        {
            "name" : "Scene",
            "nodes" : [
                3
            ]
        }
    ],
    "nodes" : [
        {
            "mesh" : 0,
            "name" : "Curve.001",
            "rotation" : [
                0.6903455257415771,
                0.15304595232009888,
                -0.15304593741893768,
                0.6903455257415771
            ],
            "scale" : [
                35.60535430908203,
                35.60535430908203,
                35.6053581237793
            ],
            "translation" : [
                -0.6700167655944824,
                0.10034956783056259,
                -0.22144007682800293
            ]
        },
        {
            "mesh" : 1,
            "name" : "Curve.010",
            "rotation" : [
                -0.42759448289871216,
                0.2413356900215149,
                -0.8629133701324463,
                0.11958480626344681
            ],
            "scale" : [
                1.8649609088897705,
                1.8649609088897705,
                1.8649611473083496
            ],
            "translation" : [
                0.00883646309375763,
                0.005020344629883766,
                -0.014755118638277054
            ]
        },
        {
            "children" : [
                1
            ],
            "mesh" : 2,
            "name" : "Curve.011",
            "rotation" : [
                0.26279640197753906,
                -0.259116530418396,
                0.926496148109436,
                0.0734957829117775
            ],
            "scale" : [
                55.283836364746094,
                55.283843994140625,
                55.28384780883789
            ],
            "translation" : [
                0.5961918830871582,
                0.01010097935795784,
                0.785180926322937
            ]
        },
        {
            "children" : [
                0,
                2
            ],
            "mesh" : 3,
            "name" : "Cylinder.003",
            "scale" : [
                1.3639041185379028,
                1.3639041185379028,
                1.3639041185379028
            ],
            "translation" : [
                7.444392681121826,
                0.06543223559856415,
                -3.638753890991211
            ]
        }
    ],
    "animations" : [
        {
            "channels" : [
                {
                    "sampler" : 0,
                    "target" : {
                        "node" : 3,
                        "path" : "translation"
                    }
                },
                {
                    "sampler" : 1,
                    "target" : {
                        "node" : 3,
                        "path" : "rotation"
                    }
                }
            ],
            "name" : "Cylinder.003Action",
            "samplers" : [
                {
                    "input" : 16,
                    "interpolation" : "LINEAR",
                    "output" : 17
                },
                {
                    "input" : 18,
                    "interpolation" : "LINEAR",
                    "output" : 19
                }
            ]
        },
        {
            "channels" : [
                {
                    "sampler" : 0,
                    "target" : {
                        "node" : 2,
                        "path" : "translation"
                    }
                },
                {
                    "sampler" : 1,
                    "target" : {
                        "node" : 2,
                        "path" : "rotation"
                    }
                },
                {
                    "sampler" : 2,
                    "target" : {
                        "node" : 2,
                        "path" : "scale"
                    }
                }
            ],
            "name" : "Curve.011Action",
            "samplers" : [
                {
                    "input" : 20,
                    "interpolation" : "LINEAR",
                    "output" : 21
                },
                {
                    "input" : 20,
                    "interpolation" : "LINEAR",
                    "output" : 22
                },
                {
                    "input" : 23,
                    "interpolation" : "LINEAR",
                    "output" : 24
                }
            ]
        },
        {
            "channels" : [
                {
                    "sampler" : 0,
                    "target" : {
                        "node" : 1,
                        "path" : "translation"
                    }
                },
                {
                    "sampler" : 1,
                    "target" : {
                        "node" : 1,
                        "path" : "rotation"
                    }
                },
                {
                    "sampler" : 2,
                    "target" : {
                        "node" : 1,
                        "path" : "scale"
                    }
                }
            ],
            "name" : "Curve.010Action",
            "samplers" : [
                {
                    "input" : 20,
                    "interpolation" : "LINEAR",
                    "output" : 25
                },
                {
                    "input" : 20,
                    "interpolation" : "LINEAR",
                    "output" : 26
                },
                {
                    "input" : 23,
                    "interpolation" : "LINEAR",
                    "output" : 27
                }
            ]
        }
    ],
    "materials" : [
        {
            "doubleSided" : false,
            "name" : "Infinity skies",
            "pbrMetallicRoughness" : {
                "baseColorFactor" : [
                    0,
                    0.029283102601766586,
                    0.10090849548578262,
                    1
                ],
                "metallicFactor" : 0,
                "roughnessFactor" : 0.699999988079071
            }
        },
        {
            "doubleSided" : false,
            "name" : "Material.013",
            "pbrMetallicRoughness" : {
                "baseColorFactor" : [
                    0.023575564846396446,
                    0.33704811334609985,
                    0.8000000715255737,
                    1
                ],
                "metallicFactor" : 0,
                "roughnessFactor" : 0.5
            }
        },
        {
            "doubleSided" : false,
            "name" : "Material.014",
            "pbrMetallicRoughness" : {
                "baseColorFactor" : [
                    0.473613977432251,
                    0.8000000715255737,
                    0.7308154702186584,
                    1
                ],
                "metallicFactor" : 0,
                "roughnessFactor" : 0.5
            }
        },
        {
            "doubleSided" : false,
            "name" : "Base_01.003",
            "pbrMetallicRoughness" : {
                "baseColorFactor" : [
                    0.043710123747587204,
                    0.10799343138933182,
                    0.18025219440460205,
                    1
                ],
                "metallicFactor" : 0,
                "roughnessFactor" : 0.699999988079071
            }
        }
    ],
    "meshes" : [
        {
            "name" : "Curve",
            "primitives" : [
                {
                    "attributes" : {
                        "POSITION" : 0,
                        "NORMAL" : 1,
                        "TEXCOORD_0" : 2
                    },
                    "indices" : 3,
                    "material" : 0
                }
            ]
        },
        {
            "name" : "Curve.078",
            "primitives" : [
                {
                    "attributes" : {
                        "POSITION" : 4,
                        "NORMAL" : 5,
                        "TEXCOORD_0" : 6
                    },
                    "indices" : 7,
                    "material" : 1
                }
            ]
        },
        {
            "name" : "Curve.004",
            "primitives" : [
                {
                    "attributes" : {
                        "POSITION" : 8,
                        "NORMAL" : 9,
                        "TEXCOORD_0" : 10
                    },
                    "indices" : 11,
                    "material" : 2
                }
            ]
        },
        {
            "name" : "Cylinder.004",
            "primitives" : [
                {
                    "attributes" : {
                        "POSITION" : 12,
                        "NORMAL" : 13,
                        "TEXCOORD_0" : 14
                    },
                    "indices" : 15,
                    "material" : 3
                }
            ]
        }
    ],
    "accessors" : [
        {
            "bufferView" : 0,
            "componentType" : 5126,
            "count" : 6934,
            "max" : [
                0.028222715482115746,
                0,
                -5.1871611503884196e-05
            ],
            "min" : [
                2.770830178633332e-07,
                0,
                -0.016646292060613632
            ],
            "type" : "VEC3"
        },
        {
            "bufferView" : 1,
            "componentType" : 5126,
            "count" : 6934,
            "type" : "VEC3"
        },
        {
            "bufferView" : 2,
            "componentType" : 5126,
            "count" : 6934,
            "type" : "VEC2"
        },
        {
            "bufferView" : 3,
            "componentType" : 5123,
            "count" : 15732,
            "type" : "SCALAR"
        },
        {
            "bufferView" : 4,
            "componentType" : 5126,
            "count" : 17,
            "max" : [
                0.006491243839263916,
                0,
                -0.001410841941833496
            ],
            "min" : [
                0.0002822279930114746,
                0,
                -0.005361199378967285
            ],
            "type" : "VEC3"
        },
        {
            "bufferView" : 5,
            "componentType" : 5126,
            "count" : 17,
            "type" : "VEC3"
        },
        {
            "bufferView" : 6,
            "componentType" : 5126,
            "count" : 17,
            "type" : "VEC2"
        },
        {
            "bufferView" : 7,
            "componentType" : 5123,
            "count" : 30,
            "type" : "SCALAR"
        },
        {
            "bufferView" : 8,
            "componentType" : 5126,
            "count" : 4294,
            "max" : [
                0.015400341711938381,
                0.010053028352558613,
                -0.0011286735534667969
            ],
            "min" : [
                -0.010740785859525204,
                -0.0006000000284984708,
                -0.02204040065407753
            ],
            "type" : "VEC3"
        },
        {
            "bufferView" : 9,
            "componentType" : 5126,
            "count" : 4294,
            "type" : "VEC3"
        },
        {
            "bufferView" : 10,
            "componentType" : 5126,
            "count" : 4294,
            "type" : "VEC2"
        },
        {
            "bufferView" : 11,
            "componentType" : 5123,
            "count" : 5580,
            "type" : "SCALAR"
        },
        {
            "bufferView" : 12,
            "componentType" : 5126,
            "count" : 964,
            "max" : [
                1,
                0.11267004907131195,
                1
            ],
            "min" : [
                -1,
                -0.05000000074505806,
                -1
            ],
            "type" : "VEC3"
        },
        {
            "bufferView" : 13,
            "componentType" : 5126,
            "count" : 964,
            "type" : "VEC3"
        },
        {
            "bufferView" : 14,
            "componentType" : 5126,
            "count" : 964,
            "type" : "VEC2"
        },
        {
            "bufferView" : 15,
            "componentType" : 5123,
            "count" : 4584,
            "type" : "SCALAR"
        },
        {
            "bufferView" : 16,
            "componentType" : 5126,
            "count" : 216,
            "max" : [
                22.866666666666667
            ],
            "min" : [
                15.7
            ],
            "type" : "SCALAR"
        },
        {
            "bufferView" : 17,
            "componentType" : 5126,
            "count" : 216,
            "type" : "VEC3"
        },
        {
            "bufferView" : 18,
            "componentType" : 5126,
            "count" : 2,
            "max" : [
                22.866666666666667
            ],
            "min" : [
                15.7
            ],
            "type" : "SCALAR"
        },
        {
            "bufferView" : 19,
            "componentType" : 5126,
            "count" : 2,
            "type" : "VEC4"
        },
        {
            "bufferView" : 20,
            "componentType" : 5126,
            "count" : 28,
            "max" : [
                18.933333333333334
            ],
            "min" : [
                18.033333333333335
            ],
            "type" : "SCALAR"
        },
        {
            "bufferView" : 21,
            "componentType" : 5126,
            "count" : 28,
            "type" : "VEC3"
        },
        {
            "bufferView" : 22,
            "componentType" : 5126,
            "count" : 28,
            "type" : "VEC4"
        },
        {
            "bufferView" : 23,
            "componentType" : 5126,
            "count" : 2,
            "max" : [
                18.933333333333334
            ],
            "min" : [
                18.033333333333335
            ],
            "type" : "SCALAR"
        },
        {
            "bufferView" : 24,
            "componentType" : 5126,
            "count" : 2,
            "type" : "VEC3"
        },
        {
            "bufferView" : 25,
            "componentType" : 5126,
            "count" : 28,
            "type" : "VEC3"
        },
        {
            "bufferView" : 26,
            "componentType" : 5126,
            "count" : 28,
            "type" : "VEC4"
        },
        {
            "bufferView" : 27,
            "componentType" : 5126,
            "count" : 2,
            "type" : "VEC3"
        }
    ],
    "bufferViews" : [
        {
            "buffer" : 0,
            "byteLength" : 83208,
            "byteOffset" : 0
        },
        {
            "buffer" : 0,
            "byteLength" : 83208,
            "byteOffset" : 83208
        },
        {
            "buffer" : 0,
            "byteLength" : 55472,
            "byteOffset" : 166416
        },
        {
            "buffer" : 0,
            "byteLength" : 31464,
            "byteOffset" : 221888
        },
        {
            "buffer" : 0,
            "byteLength" : 204,
            "byteOffset" : 253352
        },
        {
            "buffer" : 0,
            "byteLength" : 204,
            "byteOffset" : 253556
        },
        {
            "buffer" : 0,
            "byteLength" : 136,
            "byteOffset" : 253760
        },
        {
            "buffer" : 0,
            "byteLength" : 60,
            "byteOffset" : 253896
        },
        {
            "buffer" : 0,
            "byteLength" : 51528,
            "byteOffset" : 253956
        },
        {
            "buffer" : 0,
            "byteLength" : 51528,
            "byteOffset" : 305484
        },
        {
            "buffer" : 0,
            "byteLength" : 34352,
            "byteOffset" : 357012
        },
        {
            "buffer" : 0,
            "byteLength" : 11160,
            "byteOffset" : 391364
        },
        {
            "buffer" : 0,
            "byteLength" : 11568,
            "byteOffset" : 402524
        },
        {
            "buffer" : 0,
            "byteLength" : 11568,
            "byteOffset" : 414092
        },
        {
            "buffer" : 0,
            "byteLength" : 7712,
            "byteOffset" : 425660
        },
        {
            "buffer" : 0,
            "byteLength" : 9168,
            "byteOffset" : 433372
        },
        {
            "buffer" : 0,
            "byteLength" : 864,
            "byteOffset" : 442540
        },
        {
            "buffer" : 0,
            "byteLength" : 2592,
            "byteOffset" : 443404
        },
        {
            "buffer" : 0,
            "byteLength" : 8,
            "byteOffset" : 445996
        },
        {
            "buffer" : 0,
            "byteLength" : 32,
            "byteOffset" : 446004
        },
        {
            "buffer" : 0,
            "byteLength" : 112,
            "byteOffset" : 446036
        },
        {
            "buffer" : 0,
            "byteLength" : 336,
            "byteOffset" : 446148
        },
        {
            "buffer" : 0,
            "byteLength" : 448,
            "byteOffset" : 446484
        },
        {
            "buffer" : 0,
            "byteLength" : 8,
            "byteOffset" : 446932
        },
        {
            "buffer" : 0,
            "byteLength" : 24,
            "byteOffset" : 446940
        },
        {
            "buffer" : 0,
            "byteLength" : 336,
            "byteOffset" : 446964
        },
        {
            "buffer" : 0,
            "byteLength" : 448,
            "byteOffset" : 447300
        },
        {
            "buffer" : 0,
            "byteLength" : 24,
            "byteOffset" : 447748
        }
    ],
    "buffers" : [
        {
            "byteLength" : 447772,
            "uri" : "data:application/octet-stream;base64,"
        }
    ]
}
