{
    "asset" : {
        "generator" : "Khronos glTF Blender I/O v1.7.33",
        "version" : "2.0"
    },
    "scene" : 0,
    "scenes" : [
        {
            "name" : "Scene",
            "nodes" : [
                4
            ]
        }
    ],
    "nodes" : [
        {
            "mesh" : 0,
            "name" : "Curve.002",
            "rotation" : [
                0.6903455257415771,
                0.15304593741893768,
                -0.15304593741893768,
                0.6903455257415771
            ],
            "scale" : [
                19.724027633666992,
                19.724027633666992,
                19.724027633666992
            ],
            "translation" : [
                -0.7728962898254395,
                0.06928782165050507,
                -0.18830585479736328
            ]
        },
        {
            "mesh" : 1,
            "name" : "Cube.001",
            "rotation" : [
                0,
                -0.7122488617897034,
                0,
                0.701927125453949
            ],
            "scale" : [
                0.0020618585404008627,
                0.0003721029497683048,
                0.0020618585404008627
            ],
            "translation" : [
                0.0034069977700710297,
                -0.00041699130088090897,
                -0.0031625404953956604
            ]
        },
        {
            "mesh" : 2,
            "name" : "Curve.013",
            "rotation" : [
                0.16568011045455933,
                -0.022471362724900246,
                0.13181093335151672,
                0.9770727753639221
            ],
            "scale" : [
                0.7372620701789856,
                0.9177956581115723,
                0.7483017444610596
            ],
            "translation" : [
                0.000488530844449997,
                -0.0016696760430932045,
                0.008335273712873459
            ]
        },
        {
            "children" : [
                1,
                2
            ],
            "mesh" : 3,
            "name" : "Curve.014",
            "rotation" : [
                0,
                0.6358640193939209,
                0,
                0.7718011736869812
            ],
            "scale" : [
                102.16891479492188,
                77.59264373779297,
                102.16891479492188
            ],
            "translation" : [
                0.003956794738769531,
                0.17928123474121094,
                0.6093008518218994
            ]
        },
        {
            "children" : [
                0,
                3
            ],
            "mesh" : 4,
            "name" : "Cylinder.002",
            "scale" : [
                1.3639041185379028,
                1.3639041185379028,
                1.3639041185379028
            ],
            "translation" : [
                0.6072063446044922,
                0.06543223559856415,
                -0.7533373832702637
            ]
        }
    ],
    "animations" : [
        {
            "channels" : [
                {
                    "sampler" : 0,
                    "target" : {
                        "node" : 4,
                        "path" : "translation"
                    }
                },
                {
                    "sampler" : 1,
                    "target" : {
                        "node" : 4,
                        "path" : "rotation"
                    }
                }
            ],
            "name" : "Cylinder.002Action",
            "samplers" : [
                {
                    "input" : 20,
                    "interpolation" : "LINEAR",
                    "output" : 21
                },
                {
                    "input" : 22,
                    "interpolation" : "LINEAR",
                    "output" : 23
                }
            ]
        },
        {
            "channels" : [
                {
                    "sampler" : 0,
                    "target" : {
                        "node" : 2,
                        "path" : "translation"
                    }
                },
                {
                    "sampler" : 1,
                    "target" : {
                        "node" : 2,
                        "path" : "rotation"
                    }
                },
                {
                    "sampler" : 2,
                    "target" : {
                        "node" : 2,
                        "path" : "scale"
                    }
                }
            ],
            "name" : "dashboardAnimation",
            "samplers" : [
                {
                    "input" : 24,
                    "interpolation" : "LINEAR",
                    "output" : 25
                },
                {
                    "input" : 24,
                    "interpolation" : "LINEAR",
                    "output" : 26
                },
                {
                    "input" : 27,
                    "interpolation" : "LINEAR",
                    "output" : 28
                }
            ]
        },
        {
            "channels" : [
                {
                    "sampler" : 0,
                    "target" : {
                        "node" : 3,
                        "path" : "translation"
                    }
                },
                {
                    "sampler" : 1,
                    "target" : {
                        "node" : 3,
                        "path" : "rotation"
                    }
                },
                {
                    "sampler" : 2,
                    "target" : {
                        "node" : 3,
                        "path" : "scale"
                    }
                }
            ],
            "name" : "calendarAnimation",
            "samplers" : [
                {
                    "input" : 24,
                    "interpolation" : "LINEAR",
                    "output" : 29
                },
                {
                    "input" : 24,
                    "interpolation" : "LINEAR",
                    "output" : 30
                },
                {
                    "input" : 27,
                    "interpolation" : "LINEAR",
                    "output" : 31
                }
            ]
        }
    ],
    "materials" : [
        {
            "doubleSided" : false,
            "name" : "NFT history",
            "pbrMetallicRoughness" : {
                "baseColorFactor" : [
                    0.027311665937304497,
                    0.007604379206895828,
                    0.10091116279363632,
                    1
                ],
                "metallicFactor" : 0,
                "roughnessFactor" : 0.699999988079071
            }
        },
        {
            "doubleSided" : false,
            "name" : "Material.018",
            "pbrMetallicRoughness" : {
                "baseColorFactor" : [
                    0.1356334090232849,
                    0.5906189680099487,
                    0.7758224010467529,
                    1
                ],
                "metallicFactor" : 0,
                "roughnessFactor" : 0.5
            }
        },
        {
            "doubleSided" : false,
            "name" : "Material.017",
            "pbrMetallicRoughness" : {
                "baseColorFactor" : [
                    0.2581830620765686,
                    0.09305895119905472,
                    0.2917707562446594,
                    1
                ],
                "metallicFactor" : 0,
                "roughnessFactor" : 0.5
            }
        },
        {
            "doubleSided" : false,
            "name" : "nft-history",
            "pbrMetallicRoughness" : {
                "baseColorFactor" : [
                    0.0943850427865982,
                    0.05229993537068367,
                    0.1802523136138916,
                    1
                ],
                "metallicFactor" : 0,
                "roughnessFactor" : 0.699999988079071
            }
        }
    ],
    "meshes" : [
        {
            "name" : "Curve.043",
            "primitives" : [
                {
                    "attributes" : {
                        "POSITION" : 0,
                        "NORMAL" : 1,
                        "TEXCOORD_0" : 2
                    },
                    "indices" : 3,
                    "material" : 0
                }
            ]
        },
        {
            "name" : "Cube.004",
            "primitives" : [
                {
                    "attributes" : {
                        "POSITION" : 4,
                        "NORMAL" : 5,
                        "TEXCOORD_0" : 6
                    },
                    "indices" : 7
                }
            ]
        },
        {
            "name" : "Curve.087",
            "primitives" : [
                {
                    "attributes" : {
                        "POSITION" : 8,
                        "NORMAL" : 9,
                        "TEXCOORD_0" : 10
                    },
                    "indices" : 11,
                    "material" : 1
                }
            ]
        },
        {
            "name" : "Curve.088",
            "primitives" : [
                {
                    "attributes" : {
                        "POSITION" : 12,
                        "NORMAL" : 13,
                        "TEXCOORD_0" : 14
                    },
                    "indices" : 15,
                    "material" : 2
                }
            ]
        },
        {
            "name" : "Cylinder.003",
            "primitives" : [
                {
                    "attributes" : {
                        "POSITION" : 16,
                        "NORMAL" : 17,
                        "TEXCOORD_0" : 18
                    },
                    "indices" : 19,
                    "material" : 3
                }
            ]
        }
    ],
    "accessors" : [
        {
            "bufferView" : 0,
            "componentType" : 5126,
            "count" : 4646,
            "max" : [
                0.05975443869829178,
                0,
                -0.001641655806452036
            ],
            "min" : [
                2.672878639509949e-18,
                -0.003000000026077032,
                -0.01019238866865635
            ],
            "type" : "VEC3"
        },
        {
            "bufferView" : 1,
            "componentType" : 5126,
            "count" : 4646,
            "type" : "VEC3"
        },
        {
            "bufferView" : 2,
            "componentType" : 5126,
            "count" : 4646,
            "type" : "VEC2"
        },
        {
            "bufferView" : 3,
            "componentType" : 5123,
            "count" : 7482,
            "type" : "SCALAR"
        },
        {
            "bufferView" : 4,
            "componentType" : 5126,
            "count" : 24,
            "max" : [
                1,
                1,
                1
            ],
            "min" : [
                -1,
                -1,
                -1
            ],
            "type" : "VEC3"
        },
        {
            "bufferView" : 5,
            "componentType" : 5126,
            "count" : 24,
            "type" : "VEC3"
        },
        {
            "bufferView" : 6,
            "componentType" : 5126,
            "count" : 24,
            "type" : "VEC2"
        },
        {
            "bufferView" : 7,
            "componentType" : 5123,
            "count" : 36,
            "type" : "SCALAR"
        },
        {
            "bufferView" : 8,
            "componentType" : 5126,
            "count" : 3092,
            "max" : [
                0.0076201558113098145,
                0,
                -0.0008465051651000977
            ],
            "min" : [
                0.0008466839790344238,
                -0.0010000000474974513,
                -0.007618546485900879
            ],
            "type" : "VEC3"
        },
        {
            "bufferView" : 9,
            "componentType" : 5126,
            "count" : 3092,
            "type" : "VEC3"
        },
        {
            "bufferView" : 10,
            "componentType" : 5126,
            "count" : 3092,
            "type" : "VEC2"
        },
        {
            "bufferView" : 11,
            "componentType" : 5123,
            "count" : 4824,
            "type" : "SCALAR"
        },
        {
            "bufferView" : 12,
            "componentType" : 5126,
            "count" : 1501,
            "max" : [
                0.005926787853240967,
                0,
                -0.0008465051651000977
            ],
            "min" : [
                0.0008466839790344238,
                -0.0010000000474974513,
                -0.006489872932434082
            ],
            "type" : "VEC3"
        },
        {
            "bufferView" : 13,
            "componentType" : 5126,
            "count" : 1501,
            "type" : "VEC3"
        },
        {
            "bufferView" : 14,
            "componentType" : 5126,
            "count" : 1501,
            "type" : "VEC2"
        },
        {
            "bufferView" : 15,
            "componentType" : 5123,
            "count" : 2628,
            "type" : "SCALAR"
        },
        {
            "bufferView" : 16,
            "componentType" : 5126,
            "count" : 4028,
            "max" : [
                0.9967329502105713,
                0.11267028003931046,
                0.9967329502105713
            ],
            "min" : [
                -0.9967329502105713,
                -0.05000002309679985,
                -0.9967329502105713
            ],
            "type" : "VEC3"
        },
        {
            "bufferView" : 17,
            "componentType" : 5126,
            "count" : 4028,
            "type" : "VEC3"
        },
        {
            "bufferView" : 18,
            "componentType" : 5126,
            "count" : 4028,
            "type" : "VEC2"
        },
        {
            "bufferView" : 19,
            "componentType" : 5123,
            "count" : 17280,
            "type" : "SCALAR"
        },
        {
            "bufferView" : 20,
            "componentType" : 5126,
            "count" : 217,
            "max" : [
                7.233333333333333
            ],
            "min" : [
                0.03333333333333333
            ],
            "type" : "SCALAR"
        },
        {
            "bufferView" : 21,
            "componentType" : 5126,
            "count" : 217,
            "type" : "VEC3"
        },
        {
            "bufferView" : 22,
            "componentType" : 5126,
            "count" : 2,
            "max" : [
                7.233333333333333
            ],
            "min" : [
                0.03333333333333333
            ],
            "type" : "SCALAR"
        },
        {
            "bufferView" : 23,
            "componentType" : 5126,
            "count" : 2,
            "type" : "VEC4"
        },
        {
            "bufferView" : 24,
            "componentType" : 5126,
            "count" : 6,
            "max" : [
                0.2
            ],
            "min" : [
                0.03333333333333333
            ],
            "type" : "SCALAR"
        },
        {
            "bufferView" : 25,
            "componentType" : 5126,
            "count" : 6,
            "type" : "VEC3"
        },
        {
            "bufferView" : 26,
            "componentType" : 5126,
            "count" : 6,
            "type" : "VEC4"
        },
        {
            "bufferView" : 27,
            "componentType" : 5126,
            "count" : 2,
            "max" : [
                0.2
            ],
            "min" : [
                0.03333333333333333
            ],
            "type" : "SCALAR"
        },
        {
            "bufferView" : 28,
            "componentType" : 5126,
            "count" : 2,
            "type" : "VEC3"
        },
        {
            "bufferView" : 29,
            "componentType" : 5126,
            "count" : 6,
            "type" : "VEC3"
        },
        {
            "bufferView" : 30,
            "componentType" : 5126,
            "count" : 6,
            "type" : "VEC4"
        },
        {
            "bufferView" : 31,
            "componentType" : 5126,
            "count" : 2,
            "type" : "VEC3"
        }
    ],
    "bufferViews" : [
        {
            "buffer" : 0,
            "byteLength" : 55752,
            "byteOffset" : 0
        },
        {
            "buffer" : 0,
            "byteLength" : 55752,
            "byteOffset" : 55752
        },
        {
            "buffer" : 0,
            "byteLength" : 37168,
            "byteOffset" : 111504
        },
        {
            "buffer" : 0,
            "byteLength" : 14964,
            "byteOffset" : 148672
        },
        {
            "buffer" : 0,
            "byteLength" : 288,
            "byteOffset" : 163636
        },
        {
            "buffer" : 0,
            "byteLength" : 288,
            "byteOffset" : 163924
        },
        {
            "buffer" : 0,
            "byteLength" : 192,
            "byteOffset" : 164212
        },
        {
            "buffer" : 0,
            "byteLength" : 72,
            "byteOffset" : 164404
        },
        {
            "buffer" : 0,
            "byteLength" : 37104,
            "byteOffset" : 164476
        },
        {
            "buffer" : 0,
            "byteLength" : 37104,
            "byteOffset" : 201580
        },
        {
            "buffer" : 0,
            "byteLength" : 24736,
            "byteOffset" : 238684
        },
        {
            "buffer" : 0,
            "byteLength" : 9648,
            "byteOffset" : 263420
        },
        {
            "buffer" : 0,
            "byteLength" : 18012,
            "byteOffset" : 273068
        },
        {
            "buffer" : 0,
            "byteLength" : 18012,
            "byteOffset" : 291080
        },
        {
            "buffer" : 0,
            "byteLength" : 12008,
            "byteOffset" : 309092
        },
        {
            "buffer" : 0,
            "byteLength" : 5256,
            "byteOffset" : 321100
        },
        {
            "buffer" : 0,
            "byteLength" : 48336,
            "byteOffset" : 326356
        },
        {
            "buffer" : 0,
            "byteLength" : 48336,
            "byteOffset" : 374692
        },
        {
            "buffer" : 0,
            "byteLength" : 32224,
            "byteOffset" : 423028
        },
        {
            "buffer" : 0,
            "byteLength" : 34560,
            "byteOffset" : 455252
        },
        {
            "buffer" : 0,
            "byteLength" : 868,
            "byteOffset" : 489812
        },
        {
            "buffer" : 0,
            "byteLength" : 2604,
            "byteOffset" : 490680
        },
        {
            "buffer" : 0,
            "byteLength" : 8,
            "byteOffset" : 493284
        },
        {
            "buffer" : 0,
            "byteLength" : 32,
            "byteOffset" : 493292
        },
        {
            "buffer" : 0,
            "byteLength" : 24,
            "byteOffset" : 493324
        },
        {
            "buffer" : 0,
            "byteLength" : 72,
            "byteOffset" : 493348
        },
        {
            "buffer" : 0,
            "byteLength" : 96,
            "byteOffset" : 493420
        },
        {
            "buffer" : 0,
            "byteLength" : 8,
            "byteOffset" : 493516
        },
        {
            "buffer" : 0,
            "byteLength" : 24,
            "byteOffset" : 493524
        },
        {
            "buffer" : 0,
            "byteLength" : 72,
            "byteOffset" : 493548
        },
        {
            "buffer" : 0,
            "byteLength" : 96,
            "byteOffset" : 493620
        },
        {
            "buffer" : 0,
            "byteLength" : 24,
            "byteOffset" : 493716
        }
    ],
    "buffers" : [
        {
            "byteLength" : 493740,
            "uri" : "data:application/octet-stream;base64,"
        }
    ]
}
