{
    "asset" : {
        "generator" : "Khronos glTF Blender I/O v1.7.33",
        "version" : "2.0"
    },
    "scene" : 0,
    "scenes" : [
        {
            "name" : "Scene",
            "nodes" : [
                3
            ]
        }
    ],
    "nodes" : [
        {
            "mesh" : 0,
            "name" : "Curve.002",
            "rotation" : [
                0.6903455257415771,
                0.15304593741893768,
                -0.15304593741893768,
                0.6903455257415771
            ],
            "scale" : [
                19.724027633666992,
                19.724027633666992,
                19.724027633666992
            ],
            "translation" : [
                -0.7728965282440186,
                0.06928782165050507,
                -0.18830591440200806
            ]
        },
        {
            "mesh" : 1,
            "name" : "Curve.013",
            "rotation" : [
                0.16568012535572052,
                -0.022471357136964798,
                0.13181093335151672,
                0.9770727753639221
            ],
            "scale" : [
                0.7372620701789856,
                0.9177956581115723,
                0.7483017444610596
            ],
            "translation" : [
                0.0004885285161435604,
                -0.0016696758102625608,
                0.008335275575518608
            ]
        },
        {
            "children" : [
                1
            ],
            "mesh" : 2,
            "name" : "Curve.014",
            "rotation" : [
                0,
                0.6358640193939209,
                0,
                0.7718011736869812
            ],
            "scale" : [
                102.16891479492188,
                77.59264373779297,
                102.16891479492188
            ],
            "translation" : [
                0.003956884145736694,
                0.17928123474121094,
                0.6093006134033203
            ]
        },
        {
            "children" : [
                0,
                2
            ],
            "mesh" : 3,
            "name" : "Cylinder.001",
            "scale" : [
                1.3639041185379028,
                1.3639041185379028,
                1.3639041185379028
            ],
            "translation" : [
                0.6347165107727051,
                0.06543223559856415,
                -0.5961728096008301
            ]
        }
    ],
    "materials" : [
        {
            "doubleSided" : false,
            "name" : "NFT history",
            "pbrMetallicRoughness" : {
                "baseColorFactor" : [
                    0.027311665937304497,
                    0.007604379206895828,
                    0.10091116279363632,
                    1
                ],
                "metallicFactor" : 0,
                "roughnessFactor" : 0.699999988079071
            }
        },
        {
            "doubleSided" : false,
            "name" : "Material.018",
            "pbrMetallicRoughness" : {
                "baseColorFactor" : [
                    0.1356334090232849,
                    0.5906189680099487,
                    0.7758224010467529,
                    1
                ],
                "metallicFactor" : 0,
                "roughnessFactor" : 0.5
            }
        },
        {
            "doubleSided" : false,
            "name" : "Material.017",
            "pbrMetallicRoughness" : {
                "baseColorFactor" : [
                    0.2581830620765686,
                    0.09305895119905472,
                    0.2917707562446594,
                    1
                ],
                "metallicFactor" : 0,
                "roughnessFactor" : 0.5
            }
        },
        {
            "doubleSided" : false,
            "name" : "nft-history.001",
            "pbrMetallicRoughness" : {
                "baseColorFactor" : [
                    0.0943850427865982,
                    0.05229993537068367,
                    0.1802523136138916,
                    1
                ],
                "metallicFactor" : 0,
                "roughnessFactor" : 0.699999988079071
            }
        }
    ],
    "meshes" : [
        {
            "name" : "Curve.043",
            "primitives" : [
                {
                    "attributes" : {
                        "POSITION" : 0,
                        "NORMAL" : 1,
                        "TEXCOORD_0" : 2
                    },
                    "indices" : 3,
                    "material" : 0
                }
            ]
        },
        {
            "name" : "Curve.087",
            "primitives" : [
                {
                    "attributes" : {
                        "POSITION" : 4,
                        "NORMAL" : 5,
                        "TEXCOORD_0" : 6
                    },
                    "indices" : 7,
                    "material" : 1
                }
            ]
        },
        {
            "name" : "Curve.088",
            "primitives" : [
                {
                    "attributes" : {
                        "POSITION" : 8,
                        "NORMAL" : 9,
                        "TEXCOORD_0" : 10
                    },
                    "indices" : 11,
                    "material" : 2
                }
            ]
        },
        {
            "name" : "Cylinder.001",
            "primitives" : [
                {
                    "attributes" : {
                        "POSITION" : 12,
                        "NORMAL" : 13,
                        "TEXCOORD_0" : 14
                    },
                    "indices" : 15,
                    "material" : 3
                }
            ]
        }
    ],
    "accessors" : [
        {
            "bufferView" : 0,
            "componentType" : 5126,
            "count" : 4646,
            "max" : [
                0.05975443869829178,
                0,
                -0.001641655806452036
            ],
            "min" : [
                2.672878639509949e-18,
                -0.003000000026077032,
                -0.01019238866865635
            ],
            "type" : "VEC3"
        },
        {
            "bufferView" : 1,
            "componentType" : 5126,
            "count" : 4646,
            "type" : "VEC3"
        },
        {
            "bufferView" : 2,
            "componentType" : 5126,
            "count" : 4646,
            "type" : "VEC2"
        },
        {
            "bufferView" : 3,
            "componentType" : 5123,
            "count" : 7482,
            "type" : "SCALAR"
        },
        {
            "bufferView" : 4,
            "componentType" : 5126,
            "count" : 3243,
            "max" : [
                0.0076201558113098145,
                0,
                -0.0008465051651000977
            ],
            "min" : [
                0.0008466839790344238,
                -0.0010000000474974513,
                -0.007618546485900879
            ],
            "type" : "VEC3"
        },
        {
            "bufferView" : 5,
            "componentType" : 5126,
            "count" : 3243,
            "type" : "VEC3"
        },
        {
            "bufferView" : 6,
            "componentType" : 5126,
            "count" : 3243,
            "type" : "VEC2"
        },
        {
            "bufferView" : 7,
            "componentType" : 5123,
            "count" : 4824,
            "type" : "SCALAR"
        },
        {
            "bufferView" : 8,
            "componentType" : 5126,
            "count" : 1501,
            "max" : [
                0.005926787853240967,
                0,
                -0.0008465051651000977
            ],
            "min" : [
                0.0008466839790344238,
                -0.0010000000474974513,
                -0.006489872932434082
            ],
            "type" : "VEC3"
        },
        {
            "bufferView" : 9,
            "componentType" : 5126,
            "count" : 1501,
            "type" : "VEC3"
        },
        {
            "bufferView" : 10,
            "componentType" : 5126,
            "count" : 1501,
            "type" : "VEC2"
        },
        {
            "bufferView" : 11,
            "componentType" : 5123,
            "count" : 2628,
            "type" : "SCALAR"
        },
        {
            "bufferView" : 12,
            "componentType" : 5126,
            "count" : 964,
            "max" : [
                1,
                0.11267004907131195,
                1
            ],
            "min" : [
                -1,
                -0.05000000074505806,
                -1
            ],
            "type" : "VEC3"
        },
        {
            "bufferView" : 13,
            "componentType" : 5126,
            "count" : 964,
            "type" : "VEC3"
        },
        {
            "bufferView" : 14,
            "componentType" : 5126,
            "count" : 964,
            "type" : "VEC2"
        },
        {
            "bufferView" : 15,
            "componentType" : 5123,
            "count" : 4584,
            "type" : "SCALAR"
        }
    ],
    "bufferViews" : [
        {
            "buffer" : 0,
            "byteLength" : 55752,
            "byteOffset" : 0
        },
        {
            "buffer" : 0,
            "byteLength" : 55752,
            "byteOffset" : 55752
        },
        {
            "buffer" : 0,
            "byteLength" : 37168,
            "byteOffset" : 111504
        },
        {
            "buffer" : 0,
            "byteLength" : 14964,
            "byteOffset" : 148672
        },
        {
            "buffer" : 0,
            "byteLength" : 38916,
            "byteOffset" : 163636
        },
        {
            "buffer" : 0,
            "byteLength" : 38916,
            "byteOffset" : 202552
        },
        {
            "buffer" : 0,
            "byteLength" : 25944,
            "byteOffset" : 241468
        },
        {
            "buffer" : 0,
            "byteLength" : 9648,
            "byteOffset" : 267412
        },
        {
            "buffer" : 0,
            "byteLength" : 18012,
            "byteOffset" : 277060
        },
        {
            "buffer" : 0,
            "byteLength" : 18012,
            "byteOffset" : 295072
        },
        {
            "buffer" : 0,
            "byteLength" : 12008,
            "byteOffset" : 313084
        },
        {
            "buffer" : 0,
            "byteLength" : 5256,
            "byteOffset" : 325092
        },
        {
            "buffer" : 0,
            "byteLength" : 11568,
            "byteOffset" : 330348
        },
        {
            "buffer" : 0,
            "byteLength" : 11568,
            "byteOffset" : 341916
        },
        {
            "buffer" : 0,
            "byteLength" : 7712,
            "byteOffset" : 353484
        },
        {
            "buffer" : 0,
            "byteLength" : 9168,
            "byteOffset" : 361196
        }
    ],
    "buffers" : [
        {
            "byteLength" : 370364,
            "uri" : "data:application/octet-stream;base64,"
        }
    ]
}
