{
    "asset" : {
        "generator" : "Khronos glTF Blender I/O v1.7.33",
        "version" : "2.0"
    },
    "scene" : 0,
    "scenes" : [
        {
            "name" : "Scene",
            "nodes" : [
                3
            ]
        }
    ],
    "nodes" : [
        {
            "mesh" : 0,
            "name" : "Curve.001",
            "rotation" : [
                0.6903455257415771,
                0.15304595232009888,
                -0.15304593741893768,
                0.6903455257415771
            ],
            "scale" : [
                35.60535430908203,
                35.60535430908203,
                35.6053581237793
            ],
            "translation" : [
                -0.6700169444084167,
                0.10034956783056259,
                -0.22144001722335815
            ]
        },
        {
            "mesh" : 1,
            "name" : "Curve.010",
            "rotation" : [
                -0.42759448289871216,
                0.2413356900215149,
                -0.8629133701324463,
                0.1195848137140274
            ],
            "scale" : [
                1.86496102809906,
                1.8649609088897705,
                1.8649611473083496
            ],
            "translation" : [
                0.008836474269628525,
                0.005020339973270893,
                -0.01475511398166418
            ]
        },
        {
            "children" : [
                1
            ],
            "mesh" : 2,
            "name" : "Curve.011",
            "rotation" : [
                0.26279640197753906,
                -0.259116530418396,
                0.926496148109436,
                0.0734957829117775
            ],
            "scale" : [
                55.283836364746094,
                55.283843994140625,
                55.28384780883789
            ],
            "translation" : [
                0.59619140625,
                0.01010097935795784,
                0.7851808071136475
            ]
        },
        {
            "children" : [
                0,
                2
            ],
            "mesh" : 3,
            "name" : "Cylinder.003",
            "scale" : [
                1.3639041185379028,
                1.3639041185379028,
                1.3639041185379028
            ],
            "translation" : [
                0,
                0.06543223559856415,
                0
            ]
        }
    ],
    "animations" : [
        {
            "channels" : [
                {
                    "sampler" : 0,
                    "target" : {
                        "node" : 1,
                        "path" : "translation"
                    }
                },
                {
                    "sampler" : 1,
                    "target" : {
                        "node" : 1,
                        "path" : "rotation"
                    }
                },
                {
                    "sampler" : 2,
                    "target" : {
                        "node" : 1,
                        "path" : "scale"
                    }
                }
            ],
            "name" : "Curve.010Action",
            "samplers" : [
                {
                    "input" : 16,
                    "interpolation" : "LINEAR",
                    "output" : 17
                },
                {
                    "input" : 16,
                    "interpolation" : "LINEAR",
                    "output" : 18
                },
                {
                    "input" : 19,
                    "interpolation" : "LINEAR",
                    "output" : 20
                }
            ]
        },
        {
            "channels" : [
                {
                    "sampler" : 0,
                    "target" : {
                        "node" : 2,
                        "path" : "translation"
                    }
                },
                {
                    "sampler" : 1,
                    "target" : {
                        "node" : 2,
                        "path" : "rotation"
                    }
                },
                {
                    "sampler" : 2,
                    "target" : {
                        "node" : 2,
                        "path" : "scale"
                    }
                }
            ],
            "name" : "Curve.011Action",
            "samplers" : [
                {
                    "input" : 16,
                    "interpolation" : "LINEAR",
                    "output" : 21
                },
                {
                    "input" : 16,
                    "interpolation" : "LINEAR",
                    "output" : 22
                },
                {
                    "input" : 19,
                    "interpolation" : "LINEAR",
                    "output" : 23
                }
            ]
        }
    ],
    "materials" : [
        {
            "doubleSided" : false,
            "name" : "Infinity skies.001",
            "pbrMetallicRoughness" : {
                "baseColorFactor" : [
                    0,
                    0.029283102601766586,
                    0.10090849548578262,
                    1
                ],
                "metallicFactor" : 0,
                "roughnessFactor" : 0.699999988079071
            }
        },
        {
            "doubleSided" : false,
            "name" : "Material.036",
            "pbrMetallicRoughness" : {
                "baseColorFactor" : [
                    0.0006759907118976116,
                    0.02614106610417366,
                    0.07237125933170319,
                    1
                ],
                "metallicFactor" : 0
            }
        },
        {
            "doubleSided" : false,
            "name" : "Material.035",
            "pbrMetallicRoughness" : {
                "baseColorFactor" : [
                    0.473613977432251,
                    0.8000000715255737,
                    0.7308154702186584,
                    1
                ],
                "metallicFactor" : 0,
                "roughnessFactor" : 0.5
            }
        },
        {
            "doubleSided" : false,
            "name" : "Base_01.008",
            "pbrMetallicRoughness" : {
                "baseColorFactor" : [
                    0.015630638226866722,
                    0.060926444828510284,
                    0.1802491992712021,
                    1
                ],
                "metallicFactor" : 0,
                "roughnessFactor" : 0.699999988079071
            }
        }
    ],
    "meshes" : [
        {
            "name" : "Curve",
            "primitives" : [
                {
                    "attributes" : {
                        "POSITION" : 0,
                        "NORMAL" : 1,
                        "TEXCOORD_0" : 2
                    },
                    "indices" : 3,
                    "material" : 0
                }
            ]
        },
        {
            "name" : "Curve.078",
            "primitives" : [
                {
                    "attributes" : {
                        "POSITION" : 4,
                        "NORMAL" : 5,
                        "TEXCOORD_0" : 6
                    },
                    "indices" : 7,
                    "material" : 1
                }
            ]
        },
        {
            "name" : "Curve.004",
            "primitives" : [
                {
                    "attributes" : {
                        "POSITION" : 8,
                        "NORMAL" : 9,
                        "TEXCOORD_0" : 10
                    },
                    "indices" : 11,
                    "material" : 2
                }
            ]
        },
        {
            "name" : "Cylinder.008",
            "primitives" : [
                {
                    "attributes" : {
                        "POSITION" : 12,
                        "NORMAL" : 13,
                        "TEXCOORD_0" : 14
                    },
                    "indices" : 15,
                    "material" : 3
                }
            ]
        }
    ],
    "accessors" : [
        {
            "bufferView" : 0,
            "componentType" : 5126,
            "count" : 42081,
            "max" : [
                0.028222715482115746,
                0,
                -5.1871611503884196e-05
            ],
            "min" : [
                2.770830178633332e-07,
                -0.003000000026077032,
                -0.016646292060613632
            ],
            "type" : "VEC3"
        },
        {
            "bufferView" : 1,
            "componentType" : 5126,
            "count" : 42081,
            "type" : "VEC3"
        },
        {
            "bufferView" : 2,
            "componentType" : 5126,
            "count" : 42081,
            "type" : "VEC2"
        },
        {
            "bufferView" : 3,
            "componentType" : 5123,
            "count" : 63084,
            "type" : "SCALAR"
        },
        {
            "bufferView" : 4,
            "componentType" : 5126,
            "count" : 82,
            "max" : [
                0.006491243839263916,
                0,
                -0.001410841941833496
            ],
            "min" : [
                0.0002822279930114746,
                -0.0010000000474974513,
                -0.005361199378967285
            ],
            "type" : "VEC3"
        },
        {
            "bufferView" : 5,
            "componentType" : 5126,
            "count" : 82,
            "type" : "VEC3"
        },
        {
            "bufferView" : 6,
            "componentType" : 5126,
            "count" : 82,
            "type" : "VEC2"
        },
        {
            "bufferView" : 7,
            "componentType" : 5123,
            "count" : 132,
            "type" : "SCALAR"
        },
        {
            "bufferView" : 8,
            "componentType" : 5126,
            "count" : 4266,
            "max" : [
                0.015400341711938381,
                0.010053028352558613,
                -0.0011286735534667969
            ],
            "min" : [
                -0.010740785859525204,
                -0.0006000000284984708,
                -0.02204040065407753
            ],
            "type" : "VEC3"
        },
        {
            "bufferView" : 9,
            "componentType" : 5126,
            "count" : 4266,
            "type" : "VEC3"
        },
        {
            "bufferView" : 10,
            "componentType" : 5126,
            "count" : 4266,
            "type" : "VEC2"
        },
        {
            "bufferView" : 11,
            "componentType" : 5123,
            "count" : 5580,
            "type" : "SCALAR"
        },
        {
            "bufferView" : 12,
            "componentType" : 5126,
            "count" : 4028,
            "max" : [
                0.9967329502105713,
                0.11267028003931046,
                0.9967329502105713
            ],
            "min" : [
                -0.9967329502105713,
                -0.05000002309679985,
                -0.9967329502105713
            ],
            "type" : "VEC3"
        },
        {
            "bufferView" : 13,
            "componentType" : 5126,
            "count" : 4028,
            "type" : "VEC3"
        },
        {
            "bufferView" : 14,
            "componentType" : 5126,
            "count" : 4028,
            "type" : "VEC2"
        },
        {
            "bufferView" : 15,
            "componentType" : 5123,
            "count" : 17280,
            "type" : "SCALAR"
        },
        {
            "bufferView" : 16,
            "componentType" : 5126,
            "count" : 28,
            "max" : [
                18.933333333333334
            ],
            "min" : [
                18.033333333333335
            ],
            "type" : "SCALAR"
        },
        {
            "bufferView" : 17,
            "componentType" : 5126,
            "count" : 28,
            "type" : "VEC3"
        },
        {
            "bufferView" : 18,
            "componentType" : 5126,
            "count" : 28,
            "type" : "VEC4"
        },
        {
            "bufferView" : 19,
            "componentType" : 5126,
            "count" : 2,
            "max" : [
                18.933333333333334
            ],
            "min" : [
                18.033333333333335
            ],
            "type" : "SCALAR"
        },
        {
            "bufferView" : 20,
            "componentType" : 5126,
            "count" : 2,
            "type" : "VEC3"
        },
        {
            "bufferView" : 21,
            "componentType" : 5126,
            "count" : 28,
            "type" : "VEC3"
        },
        {
            "bufferView" : 22,
            "componentType" : 5126,
            "count" : 28,
            "type" : "VEC4"
        },
        {
            "bufferView" : 23,
            "componentType" : 5126,
            "count" : 2,
            "type" : "VEC3"
        }
    ],
    "bufferViews" : [
        {
            "buffer" : 0,
            "byteLength" : 504972,
            "byteOffset" : 0
        },
        {
            "buffer" : 0,
            "byteLength" : 504972,
            "byteOffset" : 504972
        },
        {
            "buffer" : 0,
            "byteLength" : 336648,
            "byteOffset" : 1009944
        },
        {
            "buffer" : 0,
            "byteLength" : 126168,
            "byteOffset" : 1346592
        },
        {
            "buffer" : 0,
            "byteLength" : 984,
            "byteOffset" : 1472760
        },
        {
            "buffer" : 0,
            "byteLength" : 984,
            "byteOffset" : 1473744
        },
        {
            "buffer" : 0,
            "byteLength" : 656,
            "byteOffset" : 1474728
        },
        {
            "buffer" : 0,
            "byteLength" : 264,
            "byteOffset" : 1475384
        },
        {
            "buffer" : 0,
            "byteLength" : 51192,
            "byteOffset" : 1475648
        },
        {
            "buffer" : 0,
            "byteLength" : 51192,
            "byteOffset" : 1526840
        },
        {
            "buffer" : 0,
            "byteLength" : 34128,
            "byteOffset" : 1578032
        },
        {
            "buffer" : 0,
            "byteLength" : 11160,
            "byteOffset" : 1612160
        },
        {
            "buffer" : 0,
            "byteLength" : 48336,
            "byteOffset" : 1623320
        },
        {
            "buffer" : 0,
            "byteLength" : 48336,
            "byteOffset" : 1671656
        },
        {
            "buffer" : 0,
            "byteLength" : 32224,
            "byteOffset" : 1719992
        },
        {
            "buffer" : 0,
            "byteLength" : 34560,
            "byteOffset" : 1752216
        },
        {
            "buffer" : 0,
            "byteLength" : 112,
            "byteOffset" : 1786776
        },
        {
            "buffer" : 0,
            "byteLength" : 336,
            "byteOffset" : 1786888
        },
        {
            "buffer" : 0,
            "byteLength" : 448,
            "byteOffset" : 1787224
        },
        {
            "buffer" : 0,
            "byteLength" : 8,
            "byteOffset" : 1787672
        },
        {
            "buffer" : 0,
            "byteLength" : 24,
            "byteOffset" : 1787680
        },
        {
            "buffer" : 0,
            "byteLength" : 336,
            "byteOffset" : 1787704
        },
        {
            "buffer" : 0,
            "byteLength" : 448,
            "byteOffset" : 1788040
        },
        {
            "buffer" : 0,
            "byteLength" : 24,
            "byteOffset" : 1788488
        }
    ],
    "buffers" : [
        {
            "byteLength" : 1788512,
            "uri" : "data:application/octet-stream;base64,"
        }
    ]
}
